<?xml version="1.0" encoding="utf-8"?>
<!-- Generator: Adobe Illustrator 26.0.3, SVG Export Plug-In . SVG Version: 6.00 Build 0)  -->
<svg version="1.1" id="Слой_1" xmlns="http://www.w3.org/2000/svg" xmlns:xlink="http://www.w3.org/1999/xlink" x="0px" y="0px"
	 viewBox="0 0 64 64" style="enable-background:new 0 0 64 64;" xml:space="preserve">
<style type="text/css">
	.st0{fill:#F5E400;}
</style>
<path class="st0" d="M52.8,0H11.2C5,0,0,5,0,11.2v41.6C0,59,5,64,11.2,64h41.6C59,64,64,59,64,52.8V11.2C64,5,59,0,52.8,0z M54,45.3
	h-8.6c-0.5,0-0.9-0.2-1.2-0.5c-1.3-1.5-5.2-5.6-7-5.3c-1.5,0.3-1.6,2.8-1.5,4.4c0,0.9-0.6,1.6-1.5,1.7c-1.5,0.1-3.6,0.1-3.8,0.1
	c-6.1-0.4-9.7-4.5-13.2-9c-3.6-4.8-6.4-10.2-8.4-15.9c-0.1-0.4,0.1-0.9,0.5-1c0.1,0,0.2,0,0.2,0h7.7c0.3,0,0.6,0.2,0.7,0.5
	c0.9,2.2,4.4,10.8,7.6,11.5c2.4,0,1.5-11.4-1.5-11.4c-0.8,0,1.4-1.4,1.6-1.5c2.8-0.8,5.8-0.8,8.7,0c1.5,0.6,1.8,2.4,1.8,4
	c0,1.5-1.7,8,0.6,8.7c3,0.9,6.9-8.5,7.8-10.8c0.1-0.3,0.4-0.5,0.7-0.5h8.5c0.4,0,0.8,0.4,0.8,0.8c0,0.1,0,0.2-0.1,0.3
	c-1.8,4-3.9,7.9-6.3,11.5c-0.4,0.6-0.4,1.5,0.2,2C51,37.6,58,45.3,54,45.3z"/>
</svg>
