<svg width="45" height="48" viewBox="0 0 45 48" fill="none" xmlns="http://www.w3.org/2000/svg">
<path d="M5.15071e-07 14.28L33.2628 0.364264C33.4151 0.300279 33.5815 0.277659 33.7455 0.29867C33.9095 0.31968 34.0654 0.383584 34.1973 0.483977C34.3293 0.58437 34.4328 0.717723 34.4975 0.870671C34.5622 1.02362 34.5858 1.19079 34.5659 1.35542L32.9277 14.8815L43.7096 23.2116C43.8408 23.313 43.9433 23.4472 44.0068 23.6006C44.0703 23.7541 44.0926 23.9214 44.0714 24.0859C44.0502 24.2503 43.9863 24.4062 43.8861 24.5377C43.7859 24.6693 43.653 24.7719 43.5005 24.8354L13.7138 37.2969L17.3701 46.0366L13.894 47.4908L5.15071e-07 14.28Z" fill="#F5E400"/>
</svg>
