<svg width="61" height="59" viewBox="0 0 61 59" fill="none" xmlns="http://www.w3.org/2000/svg">
<g clip-path="url(#clip0_219_2688)">
<path d="M30.8638 0.478596C17.4079 -0.0598348 9.03133 5.89879 3.86718 15.1837C-1.29697 24.4687 -0.533256 36.4936 5.57644 45.2281C11.6861 53.9627 22.7903 59.1196 33.6883 58.4975C37.1796 58.294 50.3082 57.9112 57.618 43.1462C62.2366 33.8254 61.1335 23.0927 55.8481 14.1188C50.5506 5.14499 39.6647 0.837549 30.8638 0.478596Z" fill="white"/>
<path d="M31.8937 58.9999C21.3593 58.9999 11.031 53.819 5.20013 45.4794C-1.03079 36.5773 -1.72177 24.3131 3.46663 14.9683C9.24902 4.55865 18.4742 -0.45473 30.8754 0.0358396C38.9853 0.358898 50.5016 4.18774 56.2355 13.9034C61.8967 23.4994 62.5513 34.2322 58.0296 43.3496C54.9384 49.5834 50.4652 54.0344 44.7192 56.571C40.0884 58.6051 35.9547 58.8324 33.9666 58.9401H33.7121C33.1059 58.988 32.4998 58.9999 31.8937 58.9999ZM29.154 0.897328C17.8317 0.897328 9.68543 5.65945 4.26671 15.411C-0.764095 24.4566 -0.0973623 36.338 5.95172 44.9768C11.9402 53.5439 22.814 58.6769 33.6636 58.0547H33.9181C44.7192 57.4445 52.5503 52.3713 57.2174 42.9547C61.6057 34.1005 60.9633 23.6789 55.4597 14.3581C49.9076 4.9535 38.7307 1.24432 30.839 0.933223C30.2693 0.909293 29.7117 0.897328 29.154 0.897328Z" fill="black"/>
<path d="M30.8638 0.478596C17.4079 -0.0598348 9.03133 5.89879 3.86718 15.1837C-1.29697 24.4687 -0.533256 36.4936 5.57644 45.2281C11.6861 53.9627 22.7903 59.1196 33.6883 58.4975C37.1796 58.294 50.3082 57.9112 57.618 43.1462C62.2366 33.8254 61.1335 23.0927 55.8481 14.1188C50.5506 5.14499 39.6647 0.837549 30.8638 0.478596Z" fill="#F5E400"/>
<path d="M31.8937 58.9999C21.3593 58.9999 11.031 53.819 5.20013 45.4794C-1.03079 36.5773 -1.72177 24.3131 3.46663 14.9683C9.24902 4.55865 18.4742 -0.45473 30.8754 0.0358396C38.9853 0.358898 50.5016 4.18774 56.2355 13.9034C61.8967 23.4994 62.5513 34.2322 58.0296 43.3496C54.9384 49.5834 50.4652 54.0344 44.7192 56.571C40.0884 58.6051 35.9547 58.8324 33.9666 58.9401H33.7121C33.1059 58.988 32.4998 58.9999 31.8937 58.9999ZM29.154 0.897328C17.8317 0.897328 9.68543 5.65945 4.26671 15.411C-0.764095 24.4566 -0.0973623 36.338 5.95172 44.9768C11.9402 53.5439 22.814 58.6769 33.6636 58.0547H33.9181C44.7192 57.4445 52.5503 52.3713 57.2174 42.9547C61.6057 34.1005 60.9633 23.6789 55.4597 14.3581C49.9076 4.9535 38.7307 1.24432 30.839 0.933223C30.2693 0.909293 29.7117 0.897328 29.154 0.897328Z" fill="black"/>
<path d="M56.8426 44.4983C57.0851 44.0556 57.3154 43.6129 57.5457 43.1462C61.0612 36.0509 61.2552 28.1419 58.8186 20.8073L49.3267 16.6315L49.157 6.856C43.6777 2.7759 36.7679 0.717898 30.8037 0.478596C29.9187 0.442701 29.0581 0.442701 28.2095 0.454666L24.0273 6.60474L13.3595 4.65442C9.34701 7.21496 6.21942 10.8404 3.80706 15.1837C1.94021 18.534 0.861316 22.2312 0.509766 26.0002L6.04971 32.6289L2.55845 39.796C3.33429 41.6984 4.32833 43.5291 5.51632 45.2281C8.82574 49.9544 13.602 53.6396 19.0207 55.925L26.0881 53.1012L31.4219 58.5453C32.1614 58.5453 32.8887 58.5453 33.6282 58.4975C35.8466 58.3658 42.0048 58.1624 48.066 54.202L50.6117 45.2999L56.8548 44.5102L56.8426 44.4983Z" fill="white"/>
<path d="M31.8701 59C31.7125 59 31.5671 59 31.4095 59C31.2882 59 31.167 58.9521 31.0943 58.8684L25.9786 53.6396L19.1901 56.3557C19.081 56.4036 18.9476 56.4036 18.8385 56.3557C13.1652 53.9627 8.43748 50.2176 5.14018 45.5033C3.95219 43.8043 2.94603 41.9497 2.13382 39.9755C2.08533 39.8558 2.08533 39.7242 2.13382 39.6165L5.49173 32.7126L0.15787 26.2874C0.0851358 26.1916 0.0487685 26.084 0.060891 25.9643C0.424563 22.0158 1.55195 18.3186 3.40668 14.9803C5.97663 10.3618 9.23756 6.76029 13.1167 4.29547C13.2137 4.23565 13.3349 4.21172 13.444 4.23565L23.8208 6.1381L27.8333 0.215369C27.9182 0.0957175 28.0515 0.0239268 28.197 0.0119616C29.0698 -0.0119686 29.9426 -3.47491e-06 30.8155 0.0358919C37.4828 0.299124 44.2713 2.66822 49.4355 6.50902C49.5446 6.59278 49.6173 6.72439 49.6173 6.85601L49.787 16.3443L59.0243 20.4005C59.1455 20.4484 59.2304 20.5561 59.2668 20.6757C61.8367 28.4052 61.3761 36.4577 57.9697 43.3496C57.7393 43.8163 57.4969 44.2709 57.2545 44.7256C57.1817 44.8572 57.0605 44.941 56.915 44.9529L50.975 45.7067L48.5142 54.3216C48.4899 54.4293 48.4172 54.5131 48.3324 54.5729C42.3802 58.4735 36.4403 58.7966 33.9067 58.9402H33.6642C33.0945 58.988 32.4884 59 31.8822 59H31.8701ZM31.6155 58.1026C32.2944 58.1026 32.9611 58.1026 33.6036 58.0548H33.8461C36.2827 57.9112 41.9681 57.5881 47.6777 53.9148L50.175 45.1683C50.2235 45.0008 50.3689 44.8692 50.5508 44.8453L56.5635 44.0795C56.7696 43.7086 56.9635 43.3257 57.1575 42.9428C60.4305 36.3261 60.9033 28.5847 58.4667 21.1304L49.1567 17.0383C48.9991 16.9665 48.89 16.811 48.89 16.6315L48.7203 7.08335C43.7137 3.43399 37.1919 1.18454 30.7791 0.933276C30.0033 0.89738 29.2274 0.89738 28.4516 0.909346L24.4027 6.86797C24.3057 7.01156 24.1239 7.09531 23.9421 7.05942L13.444 5.13303C9.77095 7.51409 6.65549 10.972 4.19463 15.3991C2.42476 18.5699 1.34587 22.0876 0.970072 25.8447L6.38879 32.3297C6.49789 32.4614 6.52214 32.6528 6.4494 32.8083L3.04301 39.796C3.80672 41.6386 4.76439 43.3736 5.86753 44.9649C9.03148 49.4877 13.5653 53.1012 18.9961 55.4224L25.8938 52.6704C26.0635 52.5987 26.2574 52.6465 26.3908 52.7781L31.5913 58.0906L31.6155 58.1026Z" fill="black"/>
<path d="M26.9117 17.3374L41.8708 21.9679L41.1434 36.3141L29.4938 40.9805L19.0928 30.3555L26.9117 17.3374Z" fill="#F5E400"/>
<path d="M29.494 41.4232C29.3728 41.4232 29.2516 41.3754 29.1667 41.2916L18.7778 30.6666C18.6324 30.523 18.6081 30.2957 18.7172 30.1282L26.5362 17.1101C26.6453 16.9306 26.8635 16.8469 27.0696 16.9067L42.0286 21.5372C42.2226 21.597 42.3559 21.7885 42.3438 21.9919L41.6165 36.3381C41.6165 36.5175 41.4952 36.6611 41.3376 36.7329L29.6759 41.3873C29.6759 41.3873 29.5668 41.4232 29.5062 41.4232H29.494ZM19.6749 30.2837L29.6153 40.4421L40.7194 36.003L41.4104 22.291L27.1302 17.8639L19.6749 30.2837Z" fill="black"/>
<path d="M27.0331 17.7802C26.8391 17.7802 26.6573 17.6485 26.5967 17.4571L23.5539 6.83208C23.4812 6.59277 23.6267 6.34151 23.8691 6.28168C24.1116 6.20989 24.3661 6.35347 24.4268 6.59278L27.4695 17.2178C27.5422 17.4571 27.3967 17.7084 27.1543 17.7682C27.1179 17.7682 27.0694 17.7802 27.0331 17.7802Z" fill="black"/>
<path d="M41.9074 22.0996C41.762 22.0996 41.6044 22.0278 41.5195 21.8962C41.3862 21.6808 41.4468 21.4056 41.665 21.274L49.3506 16.4879C49.5688 16.3563 49.8476 16.4161 49.981 16.6315C50.1143 16.8469 50.0537 17.1221 49.8355 17.2537L42.1499 22.0397C42.0772 22.0876 41.9923 22.1115 41.9074 22.1115V22.0996Z" fill="black"/>
<path d="M5.81913 33.3348C5.60092 33.3348 5.41909 33.1793 5.3706 32.9639C5.32211 32.7246 5.49182 32.4853 5.73427 32.4374L18.8871 30.0085C19.1295 29.9607 19.372 30.1282 19.4205 30.3675C19.469 30.6068 19.2993 30.8461 19.0568 30.8939L5.90398 33.3229C5.90398 33.3229 5.84337 33.3229 5.81913 33.3229V33.3348Z" fill="black"/>
<path d="M26.0515 53.6755C26.0515 53.6755 25.9667 53.6755 25.9303 53.6636C25.6879 53.5918 25.5545 53.3405 25.6151 53.1132L29.1549 40.8968C29.2276 40.6575 29.4701 40.5259 29.7125 40.5857C29.955 40.6575 30.0883 40.8968 30.0277 41.1361L26.4879 53.3525C26.4273 53.5439 26.2455 53.6755 26.0515 53.6755Z" fill="black"/>
<path d="M50.1507 45.5512C50.0416 45.5512 49.9204 45.5033 49.8355 45.4196L40.6588 36.5654C40.477 36.3979 40.477 36.1107 40.6588 35.9313C40.8286 35.7518 41.1195 35.7518 41.3013 35.9313L50.478 44.7854C50.6598 44.953 50.6598 45.2401 50.478 45.4196C50.3931 45.5153 50.2719 45.5512 50.1507 45.5512Z" fill="black"/>
<path d="M3.05465 24.8994C2.96979 24.8994 2.90918 24.8276 2.90918 24.7439C3.07889 21.9081 3.91534 19.0844 5.30942 16.5956C5.34579 16.5238 5.44276 16.4999 5.5155 16.5358C5.58823 16.5717 5.61248 16.6674 5.57611 16.7392C4.20628 19.1921 3.39408 21.968 3.21224 24.7558C3.21224 24.8396 3.13951 24.8994 3.06677 24.8994H3.05465Z" fill="black"/>
<path d="M5.03062 24.7558C5.03062 24.7558 5.00637 24.7558 4.99425 24.7558C4.90939 24.7319 4.8609 24.6481 4.88515 24.5764L5.77008 21.2381C5.79433 21.1543 5.86706 21.1065 5.95192 21.1304C6.03678 21.1543 6.08527 21.2381 6.06102 21.3099L5.17609 24.6481C5.16396 24.7199 5.09123 24.7558 5.03062 24.7558Z" fill="black"/>
<path d="M55.8355 41.6984C55.8355 41.6984 55.787 41.6984 55.7628 41.6865C55.69 41.6506 55.6537 41.5548 55.69 41.4831C56.5265 39.8438 57.1932 38.1089 57.6781 36.3261C57.7024 36.2423 57.7872 36.1945 57.86 36.2184C57.9448 36.2423 57.9933 36.3261 57.9691 36.3979C57.4842 38.1927 56.8053 39.9515 55.9567 41.6027C55.9325 41.6506 55.8719 41.6865 55.8234 41.6865L55.8355 41.6984Z" fill="black"/>
<path d="M33.3365 3.12289C33.3365 3.12289 33.3122 3.12289 33.3001 3.12289C31.9909 2.79983 30.5968 2.74001 29.2634 2.96734C29.1785 2.97931 29.1058 2.93145 29.0936 2.84769C29.0815 2.76394 29.13 2.69215 29.2149 2.68018C30.5847 2.45284 32.0273 2.51267 33.3729 2.84769C33.4577 2.87162 33.5062 2.94341 33.482 3.02717C33.4698 3.09896 33.3971 3.13486 33.3365 3.13486V3.12289Z" fill="black"/>
</g>
<defs>
<clipPath id="clip0_219_2688">
<rect width="61" height="59" fill="white"/>
</clipPath>
</defs>
</svg>
