<svg width="75" height="64" viewBox="0 0 75 64" fill="none" xmlns="http://www.w3.org/2000/svg">
<g clip-path="url(#clip0_219_2660)">
<path d="M39.1596 58.3519C39.1596 58.3519 17.3558 57.6868 7.52124 63.5829C7.36479 46.5034 6.70542 29.0407 4.7832 12.0853C9.11937 6.4823 15.3442 5.46768 21.0215 5.2873C29.2244 5.02801 37.9638 10.3379 37.9638 10.3379L39.1484 58.3519H39.1596Z" fill="white"/>
<path d="M7.52139 64C7.45434 64 7.37611 63.9775 7.32023 63.9436C7.18612 63.8647 7.10789 63.7294 7.10789 63.5829C6.9179 43.2341 6.0462 26.8874 4.38102 12.1304C4.36985 12.0176 4.40338 11.9049 4.47043 11.826C8.96305 6.02009 15.3555 5.05056 21.0216 4.87018C29.2581 4.61089 37.8298 9.76291 38.1986 9.97711C38.3216 10.056 38.3998 10.18 38.3998 10.3266L39.5844 58.3407C39.5844 58.4534 39.5397 58.5661 39.4615 58.6563C39.3833 58.7352 39.2715 58.7803 39.1486 58.7803C38.9251 58.7803 17.356 58.1941 7.7449 63.9436C7.67785 63.9887 7.59962 64 7.53257 64H7.52139ZM5.23038 12.2093C6.8732 26.7747 7.73373 42.8959 7.93489 62.8614C17.3113 57.7319 35.5612 57.8559 38.7239 57.9236L37.5504 10.5859C36.2094 9.81928 28.3305 5.47896 21.0328 5.7157C15.6126 5.8848 9.49949 6.79796 5.2192 12.2093H5.23038Z" fill="black"/>
<path d="M39.1597 58.3519C39.1597 58.3519 60.9522 57.3148 71.1445 62.557C70.228 45.5001 70.0381 27.0115 70.8874 9.95456C66.2048 4.63344 59.9352 4.03594 54.258 4.21632C46.055 4.47561 37.6621 10.3379 37.6621 10.3379L39.1597 58.3407V58.3519Z" fill="white"/>
<path d="M71.1331 62.9741C71.0661 62.9741 70.999 62.9628 70.9432 62.929C60.9745 57.7995 39.3942 58.7578 39.1707 58.7691C39.0589 58.7691 38.9472 58.7352 38.869 58.6563C38.7907 58.5774 38.7348 58.476 38.7348 58.3632L37.2373 10.3604C37.2373 10.2138 37.3044 10.0786 37.4161 9.99965C37.7626 9.7629 45.999 4.05848 54.2355 3.79919C59.9016 3.61881 66.35 4.17122 71.189 9.68399C71.2673 9.7629 71.3008 9.87564 71.2896 9.98837C70.485 26.2448 70.5744 44.4178 71.5466 62.5457C71.5466 62.6923 71.4796 62.8388 71.3567 62.929C71.2896 62.9741 71.2114 62.9967 71.1331 62.9967V62.9741ZM43.8421 57.8334C50.6593 57.8334 63.2096 58.3519 70.6749 61.858C69.7362 44.012 69.658 26.1434 70.4514 10.1124C65.847 4.98291 59.6892 4.46433 54.2579 4.64471C46.949 4.88145 39.3607 9.71781 38.0755 10.5633L39.5507 57.9123C40.2659 57.8897 41.797 57.8334 43.8421 57.8334Z" fill="black"/>
<path d="M39.0033 58.3519C39.0033 58.3519 14.6067 54.2033 3.62105 60.1783C3.49812 42.9635 2.50348 25.6924 0.424805 8.60173C5.27505 2.9424 12.2263 1.90523 18.5518 1.70231C27.7046 1.4092 37.4387 6.73031 37.4387 6.73031L39.0033 58.3519Z" fill="white"/>
<path d="M3.62106 60.6067C3.54283 60.6067 3.47578 60.5841 3.40873 60.5503C3.28579 60.4714 3.20756 60.3361 3.20756 60.1895C3.07345 42.3435 2.00059 25.0048 0.000142315 8.6581C-0.0110334 8.53409 0.0224937 8.42135 0.100723 8.33116C5.1186 2.48019 12.2375 1.47684 18.5406 1.27392C27.7047 0.980804 37.5393 6.30192 37.6398 6.35829C37.7739 6.42593 37.8522 6.57249 37.8634 6.71905L39.4279 58.3407C39.4279 58.4647 39.3832 58.5887 39.2827 58.6676C39.1933 58.7465 39.0592 58.7916 38.9362 58.7691C38.6904 58.724 14.5621 54.7219 3.82223 60.5503C3.75517 60.5841 3.68812 60.5954 3.62106 60.5954V60.6067ZM0.86067 8.74829C2.81641 24.8582 3.88928 41.9264 4.03456 59.4906C14.495 54.3611 34.9912 57.2922 38.5674 57.8559L37.0252 6.98961C35.5612 6.22301 26.7547 1.86014 18.563 2.11943C12.4946 2.31108 5.65504 3.25806 0.86067 8.73701V8.74829Z" fill="black"/>
<path d="M39.1596 58.3519C39.1596 58.3519 63.2432 52.6475 74.5865 57.901C73.6254 40.7088 73.5249 23.4152 74.5195 6.22301C69.3116 0.879338 62.3157 0.293113 55.9902 0.496037C46.8373 0.789149 37.4609 6.73032 37.4609 6.73032L39.1596 58.3519Z" fill="white"/>
<path d="M39.1595 58.7691C39.0701 58.7691 38.9807 58.7352 38.9025 58.6789C38.8019 58.6 38.746 58.4872 38.7348 58.3519L37.0361 6.73031C37.0361 6.58375 37.1032 6.4372 37.2373 6.35828C37.3267 6.30191 46.8149 0.360748 55.9789 0.0676359C62.282 -0.135288 69.4456 0.405843 74.8211 5.91861C74.8993 6.0088 74.944 6.12154 74.944 6.24555C73.9829 22.6824 74.0053 40.055 75.0111 57.8672C75.0111 58.0137 74.9552 58.1603 74.8323 58.2392C74.7094 58.3181 74.5529 58.3407 74.4188 58.273C63.3325 53.1436 39.506 58.6902 39.2713 58.7465C39.2377 58.7465 39.2042 58.7465 39.1707 58.7465L39.1595 58.7691ZM37.8855 6.95578L39.5618 57.8221C43.0934 57.0329 63.366 52.7828 74.1282 57.2359C73.1671 39.6942 73.1559 22.5922 74.0947 6.3921C68.9539 1.22881 62.0697 0.721502 56.0013 0.924426C47.8095 1.18372 39.3048 6.11026 37.8855 6.96705V6.95578Z" fill="black"/>
<path d="M52.3573 0.620051C53.8884 6.32447 53.866 11.9951 53.9666 17.9024C52.6367 15.8394 51.0833 14.0469 49.2728 12.4798C48.4458 14.7233 47.4735 16.9329 46.5124 19.1312C46.2219 19.1989 46.0431 18.8607 45.976 18.5901C44.6461 13.0886 44.5232 8.15079 43.3721 2.62675C45.3166 1.44302 46.4789 1.04845 48.7699 0.732787C49.664 0.608778 51.4297 0.180383 52.3685 0.620051H52.3573Z" fill="#F5E400"/>
<path d="M46.4345 19.5596C46.3004 19.5596 46.1775 19.5258 46.0545 19.4469C45.7304 19.244 45.6075 18.8494 45.5628 18.6803C44.8364 15.6703 44.4564 12.7842 44.0988 9.98838C43.7971 7.64348 43.4841 5.21966 42.9589 2.70566C42.9253 2.52528 43.0036 2.3449 43.1489 2.25472C45.127 1.05972 46.3228 0.631324 48.7032 0.304391C48.8596 0.281843 49.0273 0.248023 49.2284 0.214202C50.2454 0.0450987 51.6424 -0.191646 52.5364 0.214202C52.6482 0.27057 52.7376 0.372032 52.7711 0.484767C54.2128 5.86226 54.291 11.127 54.3692 16.7074L54.3916 17.8799C54.3916 18.0715 54.2687 18.2406 54.0899 18.297C53.911 18.3534 53.7211 18.2857 53.6205 18.1279C52.4359 16.2903 51.0389 14.6331 49.4631 13.2013C48.6808 15.2644 47.7756 17.3162 46.9039 19.3003C46.848 19.4243 46.7474 19.5033 46.6245 19.5371C46.5686 19.5484 46.5016 19.5596 46.4457 19.5596H46.4345ZM43.8418 2.82967C44.3335 5.26476 44.6352 7.60966 44.937 9.87564C45.2946 12.6264 45.6634 15.4673 46.3675 18.4097C47.2392 16.4143 48.1332 14.3625 48.882 12.322C48.9267 12.1867 49.0384 12.0965 49.1726 12.0627C49.3067 12.0289 49.4408 12.0627 49.5525 12.1529C51.0277 13.4268 52.3688 14.8924 53.5311 16.5045C53.4528 11.1496 53.3523 6.06518 52.0112 0.93571C51.3183 0.732786 50.156 0.93571 49.3737 1.05972C49.1726 1.09354 48.9826 1.12736 48.8261 1.14991C46.6804 1.45429 45.5628 1.82632 43.8418 2.84094V2.82967Z" fill="black"/>
<path d="M7.3649 14.6782C7.3649 14.6782 7.26432 14.6556 7.24197 14.5993C7.20844 14.5316 7.23079 14.4414 7.29784 14.4076C10.6282 12.5926 14.6961 11.702 19.4011 11.7696C23.5696 11.826 27.727 12.6038 31.7502 13.3592C31.8285 13.3705 31.8732 13.4494 31.862 13.5283C31.8508 13.6072 31.7726 13.6523 31.6944 13.641C27.6823 12.8857 23.5361 12.1191 19.3899 12.0627C14.7297 12.0063 10.7064 12.8744 7.43195 14.6669C7.4096 14.6782 7.38725 14.6895 7.3649 14.6895V14.6782Z" fill="black"/>
<path d="M8.15795 24.4411C8.10207 24.4411 8.04619 24.4073 8.02384 24.3509C8.00149 24.2832 8.02384 24.1931 8.10207 24.1705C15.668 21.2168 24.1168 22.2766 31.571 23.201C31.6492 23.201 31.7051 23.2799 31.6939 23.3588C31.6939 23.4377 31.6157 23.4941 31.5375 23.4828C24.1168 22.5584 15.7015 21.51 8.20265 24.4298C8.19148 24.4298 8.16912 24.4298 8.14677 24.4298L8.15795 24.4411Z" fill="black"/>
<path d="M8.7728 34.824C8.7728 34.824 8.67222 34.7902 8.64987 34.7451C8.61634 34.6775 8.64987 34.5873 8.71693 34.5535C11.5891 33.1894 14.6512 32.3664 17.8139 32.0958C19.2891 31.9718 20.8761 31.9605 22.6865 32.062C25.8716 32.2424 28.889 32.7271 31.6382 33.505C31.7165 33.5276 31.7612 33.6065 31.7388 33.6741C31.7165 33.753 31.6382 33.7981 31.5712 33.7756C28.8332 33.009 25.8381 32.5242 22.6754 32.3438C20.8872 32.2424 19.3003 32.2537 17.8475 32.3777C14.7183 32.6482 11.6897 33.4599 8.85103 34.8127C8.82868 34.8127 8.80633 34.824 8.79516 34.824H8.7728Z" fill="black"/>
<path d="M8.90689 45.0942C8.90689 45.0942 8.80631 45.0717 8.78396 45.0153C8.75043 44.9477 8.77278 44.8575 8.83984 44.8237C14.9976 41.4416 23.2788 41.1372 32.1411 43.9556C32.2194 43.9782 32.2529 44.0571 32.2305 44.136C32.2082 44.2149 32.13 44.2487 32.0517 44.2262C23.2565 41.4303 15.0647 41.7234 8.96277 45.0717C8.94042 45.083 8.91807 45.0942 8.89571 45.0942H8.90689Z" fill="black"/>
<path d="M44.8035 23.4265C44.7476 23.4265 44.6917 23.3926 44.6693 23.3363C44.647 23.2686 44.6693 23.1784 44.7476 23.1559C51.9894 20.3262 60.997 19.9655 68.2389 22.1976C68.3171 22.2202 68.3506 22.2991 68.3283 22.378C68.3059 22.4569 68.2277 22.4908 68.1495 22.4682C60.9523 20.2586 52.0229 20.6193 44.837 23.4265C44.8258 23.4265 44.8035 23.4265 44.7811 23.4265H44.8035Z" fill="black"/>
<path d="M45.4183 33.6403C45.4183 33.6403 45.3177 33.6065 45.2954 33.5614C45.2619 33.4937 45.2954 33.4036 45.3624 33.3697C48.2346 32.0056 51.2967 31.1827 54.4594 30.9121C55.9346 30.7881 57.5216 30.7768 59.332 30.8783C62.5171 31.0587 65.5345 31.5434 68.2838 32.3213C68.362 32.3438 68.4067 32.4228 68.3843 32.4904C68.362 32.5693 68.2838 32.6144 68.2167 32.5919C65.4787 31.8253 62.4836 31.3405 59.3209 31.1601C57.5328 31.0587 55.9458 31.0699 54.493 31.1939C51.3638 31.4645 48.3352 32.2762 45.4965 33.629C45.4742 33.629 45.4518 33.6403 45.4407 33.6403H45.4183Z" fill="black"/>
<path d="M45.5631 44.0909C45.5631 44.0909 45.4626 44.0683 45.4402 44.012C45.4067 43.9443 45.429 43.8541 45.4961 43.8203C51.6539 40.4383 59.9351 40.1339 68.7974 42.9523C68.8756 42.9748 68.9091 43.0537 68.8868 43.1326C68.8644 43.2116 68.7862 43.2454 68.708 43.2228C59.9127 40.427 51.7209 40.7201 45.619 44.0683C45.5967 44.0796 45.5743 44.0909 45.552 44.0909H45.5631Z" fill="black"/>
<path d="M67.8926 12.6377C67.8926 12.6377 67.8591 12.6377 67.8367 12.6264C64.6517 11.2285 61.1425 10.6197 57.6892 10.8903C57.611 10.8903 57.5439 10.8339 57.5439 10.755C57.5439 10.6761 57.5998 10.6084 57.6781 10.6084C61.1872 10.3379 64.7411 10.9466 67.9597 12.3671C68.0267 12.4009 68.0603 12.4798 68.0267 12.5475C68.0044 12.6038 67.9485 12.6377 67.9038 12.6377H67.8926Z" fill="black"/>
<path d="M3.37519 13.4494C3.30813 13.4494 3.24108 13.393 3.24108 13.3253L2.71582 8.73701C2.71582 8.65809 2.76052 8.59045 2.83875 8.57918C2.91698 8.57918 2.98404 8.62427 2.99521 8.70319L3.52047 13.2915C3.52047 13.3704 3.47577 13.4381 3.39754 13.4494H3.38636H3.37519Z" fill="black"/>
<path d="M4.7157 9.74036C4.64864 9.74036 4.58159 9.68399 4.58159 9.60507L4.3916 6.87687C4.3916 6.79796 4.44748 6.73032 4.52571 6.73032C4.59276 6.73032 4.67099 6.78668 4.67099 6.8656L4.86098 9.5938C4.86098 9.67272 4.8051 9.74036 4.72687 9.74036H4.7157Z" fill="black"/>
<path d="M72.0716 54.8008C72.0045 54.8008 71.9487 54.7557 71.9375 54.6768C71.7028 53.1887 71.6357 51.678 71.7587 50.1786C71.7587 50.0997 71.8369 50.0433 71.904 50.0433C71.9822 50.0433 72.0381 50.1223 72.0269 50.1899C71.9151 51.6667 71.971 53.1548 72.2057 54.6204C72.2169 54.6993 72.161 54.767 72.094 54.7782H72.0716V54.8008Z" fill="black"/>
<path d="M70.0042 54.2709H69.9819C69.9148 54.2709 69.8589 54.2033 69.8589 54.1356L69.7695 51.9824C69.7695 51.9035 69.8254 51.8358 69.9036 51.8358C69.9819 51.8358 70.0489 51.8922 70.0489 51.9598C70.2166 53.8425 70.183 53.9891 70.1272 54.1582C70.1048 54.2146 70.0489 54.2596 69.993 54.2596L70.0042 54.2709Z" fill="black"/>
</g>
<defs>
<clipPath id="clip0_219_2660">
<rect width="75" height="64" fill="white"/>
</clipPath>
</defs>
</svg>
