<svg width="74" height="73" viewBox="0 0 74 73" fill="none" xmlns="http://www.w3.org/2000/svg">
<g clip-path="url(#clip0_219_2710)">
<path d="M7.74948 30.5578C6.04021 38.1931 4.95548 54.5815 0.3125 62.5785C8.97391 68.9481 18.2516 68.6029 28.9921 69.4166C37.481 70.0576 54.3107 70.0412 65.5854 66.0551C59.4714 53.2911 58.6743 39.5081 54.6148 24.6484C52.7576 17.8349 44.1455 14.7857 37.1276 13.6022C30.1097 12.4105 8.89173 25.4456 7.74948 30.566V30.5578Z" fill="#F5E400"/>
<path d="M37.8262 70.0248C34.383 70.0248 31.326 69.8933 28.9675 69.7207C27.4966 69.6056 26.0503 69.5152 24.645 69.433C15.5399 68.8659 7.68379 68.3728 0.131766 62.825C0.00850077 62.7346 -0.0325875 62.5538 0.049589 62.4223C3.32843 56.7759 4.82405 46.8476 6.02382 38.8752C6.5251 35.563 6.95242 32.7029 7.4537 30.492C8.08646 27.6565 14.2579 22.906 20.0842 19.4458C25.8284 16.0432 33.3311 12.6406 37.1852 13.2899C42.9293 14.268 52.8645 17.0213 54.9189 24.5662C56.357 29.8509 57.3924 35.0206 58.3949 40.0095C60.2193 49.116 61.945 57.7211 65.8648 65.9235C65.9059 66.0057 65.9059 66.0961 65.8648 66.1783C65.8319 66.2605 65.7662 66.3263 65.684 66.3509C57.5732 69.2193 46.504 70.033 37.8262 70.033V70.0248ZM0.715219 62.4881C8.05359 67.781 15.77 68.2577 24.6779 68.8166C26.0831 68.907 27.5376 68.9974 29.0086 69.1043C37.1934 69.7289 53.9245 69.7289 65.1499 65.8742C61.2958 57.7047 59.5865 49.1653 57.7786 40.1327C56.7843 35.1521 55.7489 29.9989 54.3108 24.7306C52.3467 17.5226 42.6664 14.8515 37.0701 13.9063C34.0296 13.3885 27.4883 15.772 20.3883 19.9801C13.6252 23.9909 8.54665 28.3715 8.04537 30.6317C7.55231 32.8179 7.12499 35.6699 6.62371 38.9739C5.43215 46.8886 3.94476 56.7184 0.707002 62.5045L0.715219 62.4881Z" fill="black"/>
<path d="M56.5381 43.3792C56.1766 40.2067 55.1658 31.9714 53.399 29.2838C51.4268 26.2839 48.2219 24.1553 44.828 22.6183C36.9801 19.0678 27.686 18.3527 19.2382 20.6458C14.0939 22.043 8.77712 25.1251 7.35547 30.8208C15.2198 39.6314 5.62154 52.9295 11.1027 62.1922C14.9075 68.6111 22.9608 71.8987 30.8251 72.6137C38.1635 73.2877 51.8212 69.5727 55.4781 56.5376C56.0615 54.45 56.3984 52.3213 56.571 50.1844C57.2695 50.3324 58.0009 50.3899 58.7487 50.3159C62.3809 49.9543 65.7008 47.1188 64.9695 43.7901C63.556 37.3548 56.9655 43.2559 56.5381 43.3874V43.3792Z" fill="white"/>
<path d="M32.4928 73C31.8847 73 31.3177 72.9753 30.8 72.926C21.7277 72.0959 14.2661 68.1427 10.8393 62.3483C8.24252 57.9677 8.95746 52.6583 9.64774 47.5297C10.4366 41.6861 11.2502 35.6535 7.12492 31.0262C7.05918 30.9523 7.03453 30.8454 7.05918 30.7468C8.71915 24.1059 15.359 21.3773 19.1638 20.3417C27.6608 18.0322 37.0618 18.7555 44.959 22.3307C48.9774 24.147 51.9029 26.4237 53.6615 29.103C54.8777 30.9605 55.9296 35.5795 56.7924 42.8368L56.8417 42.7957C58.0744 41.908 60.9752 39.8286 63.1529 40.6588C64.2048 41.0615 64.9197 42.0888 65.2731 43.708C65.5689 45.0476 65.2731 46.3873 64.402 47.5708C63.2104 49.2146 61.0492 50.3817 58.7811 50.6036C58.1401 50.6693 57.4909 50.6447 56.85 50.5378C56.661 52.7241 56.3076 54.713 55.7817 56.6116C53.7108 63.9921 48.5994 67.9536 44.6796 69.9837C40.3736 72.211 35.8292 72.9918 32.501 72.9918L32.4928 73ZM7.68372 30.7386C11.8747 35.5548 11.053 41.6861 10.2476 47.6119C9.57379 52.6336 8.86707 57.8362 11.357 62.036C14.6852 67.6577 21.966 71.496 30.8493 72.3096C38.8944 73.0493 51.7632 68.6193 55.1736 56.4554C55.7241 54.4993 56.0775 52.4364 56.2501 50.1598C56.2501 50.0694 56.2994 49.9872 56.3733 49.9379C56.4473 49.8885 56.5377 49.8639 56.6199 49.8803C57.3102 50.0283 58.0169 50.0694 58.7072 50.0036C60.8109 49.7981 62.7995 48.7297 63.8925 47.2256C64.6485 46.1818 64.9115 45.0148 64.6567 43.8559C64.3445 42.4505 63.761 41.571 62.9146 41.2505C61.0492 40.5355 58.2387 42.5491 57.1869 43.3134C56.8253 43.5765 56.7185 43.6504 56.6116 43.6833C56.5213 43.708 56.4309 43.6997 56.3569 43.6422C56.2829 43.5929 56.2336 43.5107 56.2172 43.4203C55.1489 34.1412 53.9491 30.7057 53.1274 29.4564C51.4345 26.8757 48.5912 24.673 44.6878 22.906C36.9221 19.3883 27.6691 18.6815 19.3035 20.9499C15.6549 21.9362 9.32726 24.5251 7.67551 30.7468L7.68372 30.7386Z" fill="black"/>
<path d="M27.9809 51.7378C27.9398 51.7378 27.8905 51.7296 27.8494 51.7131C27.6933 51.6392 27.6276 51.4583 27.6933 51.3022C28.4658 49.6009 28.7123 47.8009 28.4 46.0832C28.3672 45.9188 28.4822 45.7544 28.6466 45.7216C28.8109 45.6887 28.9753 45.8038 29.0081 45.9681C29.3451 47.8092 29.0821 49.7406 28.2521 51.5488C28.2028 51.6638 28.0878 51.7296 27.9727 51.7296L27.9809 51.7378Z" fill="black"/>
<path d="M39.5102 49.305C39.2062 48.5078 39.6253 47.6037 40.447 47.2832C41.2688 46.9626 42.1727 47.3489 42.4768 48.1461C42.7808 48.9434 42.3617 49.8474 41.54 50.168C40.7182 50.4885 39.8143 50.1022 39.5102 49.305Z" fill="black"/>
<path d="M14.7752 47.6284C14.5533 46.8065 15.0546 45.9435 15.901 45.7051C16.7474 45.4668 17.6103 45.9435 17.8404 46.7654C18.0704 47.5873 17.561 48.4502 16.7145 48.6886C15.8681 48.9269 15.0053 48.4502 14.7752 47.6284Z" fill="black"/>
<path d="M53.7687 15.6734C54.7548 11.2188 60.0963 0.599976 61.2139 0.320534C62.9972 -0.115066 71.2723 6.77235 73.6883 15.4515C68.4537 14.7282 62.9972 15.9117 58.5103 18.7472C57.4338 19.4294 56.2833 20.2349 55.026 20.0951C53.1442 19.8814 52.1252 17.1035 53.7687 15.6734Z" fill="#F5E400"/>
<path d="M55.3132 20.4239C55.2064 20.4239 55.0996 20.4239 54.9845 20.4075C53.9738 20.2924 53.1027 19.5198 52.7658 18.4267C52.4288 17.35 52.7082 16.2405 53.4807 15.5172C54.0395 13.0927 55.7406 9.18048 57.154 6.30387C58.0415 4.49572 60.2192 0.254785 61.1313 0.0328755C62.2161 -0.230128 64.8622 1.54515 67.4261 4.26559C69.2586 6.20525 72.5374 10.2325 73.9755 15.3775C74.0002 15.4761 73.9755 15.583 73.9098 15.6652C73.8441 15.7474 73.7372 15.7802 73.6386 15.7638C68.4368 15.0405 63.12 16.1994 58.666 19.0102L58.4277 19.1582C57.4991 19.7499 56.4555 20.4157 55.305 20.4157L55.3132 20.4239ZM61.4025 0.616415C61.3614 0.616415 61.3203 0.616415 61.2875 0.632853C60.2931 1.01914 55.0749 11.1777 54.0642 15.7474C54.0477 15.8131 54.0148 15.8706 53.9655 15.9117C53.3081 16.4788 53.078 17.35 53.3574 18.2377C53.6204 19.0924 54.286 19.7088 55.0503 19.791C56.1104 19.9061 57.1211 19.265 58.099 18.6404L58.3373 18.4842C62.7749 15.6734 68.0506 14.4734 73.2524 15.0816C71.7979 10.2818 68.7162 6.51756 66.9823 4.67654C64.402 1.93965 62.1668 0.608196 61.3943 0.608196L61.4025 0.616415Z" fill="black"/>
<path d="M55.5271 22.9389C57.3103 22.7005 59.373 22.2731 60.1701 20.6211C60.7535 19.413 60.4166 17.9336 59.8332 16.7172C58.9128 14.794 57.3925 13.1666 55.5518 12.1393C53.9493 11.2516 51.8456 10.8571 50.3993 11.9831C48.8379 13.1913 48.764 15.6241 49.4378 17.5144C50.4075 20.202 52.6263 23.3169 55.5189 22.9389H55.5271Z" fill="white"/>
<path d="M55.0586 23.2758C52.3879 23.2758 50.1937 20.5143 49.1583 17.6213C48.4516 15.6569 48.5091 13.0762 50.2184 11.7448C51.8373 10.4873 54.1136 10.9886 55.7078 11.8763C57.6061 12.9283 59.1674 14.6049 60.1207 16.5857C60.8767 18.1637 60.9917 19.6431 60.4576 20.7526C59.6276 22.4868 57.6225 22.9717 55.5763 23.243C55.4037 23.2676 55.2312 23.2758 55.0668 23.2758H55.0586ZM52.5604 11.5968C51.8537 11.5968 51.1634 11.7776 50.5882 12.2215C49.1254 13.3557 49.1172 15.7063 49.7336 17.4076C50.695 20.0869 52.6837 22.6512 55.0504 22.6512C55.1901 22.6512 55.338 22.643 55.4859 22.6265C57.3595 22.38 59.1839 21.9526 59.8906 20.4814C60.4987 19.2075 59.9399 17.6624 59.5537 16.8487C58.6579 14.983 57.187 13.405 55.3955 12.4105C54.5655 11.9502 53.5383 11.5968 52.5522 11.5968H52.5604Z" fill="black"/>
<path d="M6.85312 20.9581C3.78794 24.747 1.64313 31.9632 1.55273 38.1027C11.8412 39.0396 21.8997 37.1164 24.4964 35.6699C26.6412 34.4782 27.9561 32.4234 29.1723 30.4591C29.879 32.333 29.8461 34.4371 29.0819 36.3192C31.465 36.8945 33.881 37.3548 36.3216 37.7C38.3678 37.9876 40.6359 38.1602 42.3781 37.1164C43.9969 36.1466 44.7283 34.3877 45.3528 32.7522C45.698 34.322 46.0513 35.8918 46.3965 37.4616C46.4787 37.8232 46.5691 38.2095 46.8649 38.4725C47.1607 38.7355 51.7626 40.0341 54.1211 40.7492C57.3835 41.7519 61.1061 40.0588 61.1061 40.0588C61.1061 40.0588 60.7527 29.9496 60.3254 27.714C59.4133 22.9635 56.5124 17.1117 51.401 13.8488C47.4566 11.3338 43.2738 12.5502 43.2738 12.5502C43.2738 12.5502 41.1701 10.0106 34.8753 8.85994C21.8832 6.49291 13.2465 13.0433 6.86134 20.9499L6.85312 20.9581Z" fill="#F5E400"/>
<path d="M56.3893 41.382C55.6169 41.382 54.8115 41.2916 54.0309 41.0532C53.3817 40.856 52.5681 40.6176 51.7217 40.3629C48.1306 39.3026 46.8897 38.9081 46.6596 38.7109C46.2816 38.3739 46.1748 37.889 46.0926 37.5356L45.2626 33.8042C44.6463 35.2589 43.8903 36.574 42.5261 37.3876C40.7347 38.4643 38.4584 38.3246 36.2725 38.0123C33.8319 37.6671 31.3912 37.1986 29.0081 36.6233C28.9177 36.5986 28.8437 36.5411 28.8027 36.4671C28.7616 36.3849 28.7616 36.2945 28.7944 36.2123C29.4519 34.5932 29.5505 32.8344 29.0821 31.1906C28.0138 32.8837 26.6825 34.8151 24.6363 35.9493C22.171 37.3219 12.0469 39.3766 1.51182 38.415C1.34747 38.3986 1.23242 38.2671 1.23242 38.1027C1.32282 31.7906 3.58267 24.5004 6.60677 20.7691C10.354 16.1336 14.1588 12.8707 18.2348 10.7914C23.2886 8.21887 28.9013 7.47095 34.9166 8.57228C40.4553 9.5832 42.8055 11.6461 43.3643 12.2215C44.2436 12.0078 47.9662 11.3092 51.5574 13.6022C56.907 17.0213 59.7421 23.1115 60.6214 27.6729C61.0487 29.9085 61.3939 39.6478 61.4021 40.067C61.4021 40.1903 61.3364 40.3053 61.2213 40.3546C61.098 40.4122 58.8957 41.3902 56.3729 41.3902L56.3893 41.382ZM45.353 32.4481H45.3777C45.5174 32.4563 45.6242 32.5549 45.6571 32.6864L46.7007 37.3959C46.7829 37.7575 46.8568 38.0534 47.0705 38.2424C47.3417 38.4232 49.9713 39.1958 51.8943 39.7711C52.7407 40.0259 53.5625 40.2642 54.2034 40.4615C56.907 41.2916 59.9969 40.182 60.7858 39.8615C60.7283 38.3903 60.4078 29.7852 60.0215 27.7798C59.1751 23.3416 56.414 17.424 51.2369 14.1118C47.465 11.7037 43.4054 12.8379 43.3643 12.8543C43.2493 12.8872 43.1178 12.8543 43.0439 12.7557C43.0274 12.731 40.9073 10.2818 34.8262 9.17226C24.1022 7.21617 15.2928 11.0215 7.10805 21.1471C4.21543 24.7306 2.02953 31.7002 1.88162 37.815C12.1866 38.7027 21.9738 36.7219 24.3651 35.3987C26.4935 34.2152 27.7919 32.1358 28.9341 30.2948C28.9999 30.1961 29.1067 30.1386 29.23 30.1468C29.345 30.155 29.4436 30.2372 29.4847 30.3441C30.1832 32.1933 30.1914 34.2151 29.5176 36.0973C31.7692 36.6315 34.0784 37.0671 36.3876 37.3959C38.4666 37.6917 40.6114 37.8315 42.2385 36.8534C43.7177 35.9658 44.3998 34.4206 45.0818 32.6453C45.1311 32.5221 45.2462 32.4481 45.3695 32.4481H45.353Z" fill="black"/>
<path d="M30.5781 60.9511C30.5041 60.9511 30.4302 60.9511 30.3562 60.9511C29.2139 60.8936 28.1621 60.3923 27.48 59.5786C27.3732 59.4471 27.3896 59.2498 27.5129 59.143C27.6444 59.0361 27.8416 59.0526 27.9484 59.1759C28.5237 59.858 29.4112 60.2772 30.3891 60.3265C31.3505 60.3758 32.2545 60.0553 32.8872 59.4471C33.0105 59.332 33.2077 59.332 33.3228 59.4471C33.4378 59.5704 33.4378 59.7676 33.3228 59.8827C32.6243 60.5566 31.6299 60.9347 30.5863 60.9347L30.5781 60.9511Z" fill="black"/>
<path d="M16.7968 60.3265C15.6546 60.3265 14.5041 60.1375 13.3865 59.7594C7.90531 57.9266 4.80726 52.0912 6.48366 46.7572C7.27255 44.234 9.02291 42.171 11.3896 40.9629C13.8795 39.6889 16.7475 39.4917 19.4758 40.404C24.957 42.2368 28.055 48.0722 26.3786 53.4062C25.5897 55.9294 23.8394 57.9923 21.4644 59.2005C20.0017 59.9484 18.4157 60.3265 16.7968 60.3265ZM16.0572 40.4615C14.537 40.4615 13.0413 40.8149 11.669 41.5135C9.44201 42.6477 7.8067 44.5792 7.06711 46.9462C5.48932 51.9597 8.41481 57.4499 13.5837 59.1759C16.1476 60.0306 18.8512 59.8498 21.1933 58.6499C23.4202 57.5157 25.0556 55.5842 25.7952 53.2172C27.3729 48.2037 24.4475 42.7135 19.2786 40.9875C18.2185 40.6341 17.1337 40.4533 16.0572 40.4533V40.4615Z" fill="black"/>
<path d="M43.496 61.6662C42.3538 61.6662 41.2033 61.4771 40.0857 61.0991C34.6045 59.2663 31.5065 53.4309 33.1829 48.0968C33.9718 45.5736 35.7221 43.5107 38.097 42.3025C40.587 41.0286 43.4549 40.8313 46.1832 41.7436C51.6644 43.5765 54.7624 49.4118 53.086 54.7459C52.2971 57.2691 50.5468 59.332 48.1719 60.5402C46.7091 61.2881 45.1231 61.6662 43.5043 61.6662H43.496ZM42.7564 41.8012C41.2362 41.8012 39.7406 42.1546 38.3682 42.8532C36.1412 43.9874 34.5059 45.9188 33.7663 48.2859C32.1885 53.2994 35.114 58.7896 40.2829 60.5155C42.8468 61.3703 45.5504 61.1895 47.8925 59.9895C50.1195 58.8553 51.7548 56.9239 52.4944 54.5569C54.0722 49.5433 51.1467 44.0531 45.9778 42.3272C44.9177 41.9738 43.833 41.793 42.7564 41.793V41.8012Z" fill="black"/>
<path d="M34.0704 46.4448C33.9636 46.4448 33.8649 46.3873 33.8074 46.2887C33.0103 44.9243 30.8573 44.0778 29.4274 44.1764C28.3098 44.2504 27.5949 44.8093 26.6827 45.5161C26.4197 45.7216 26.1486 45.9353 25.8445 46.149C25.7048 46.2476 25.5158 46.2147 25.4172 46.075C25.3186 45.9353 25.3515 45.7462 25.4912 45.6476C25.7788 45.4421 26.0417 45.2367 26.3047 45.0312C27.2169 44.3162 28.0879 43.6504 29.3863 43.56C31.0381 43.4532 33.4212 44.3983 34.3416 45.9764C34.4237 46.1243 34.3744 46.3133 34.2347 46.3955C34.1854 46.4202 34.1361 46.4366 34.0786 46.4366L34.0704 46.4448Z" fill="black"/>
<path d="M4.20733 34.511C4.20733 34.511 4.1909 34.511 4.18268 34.511C4.12516 34.4946 4.09229 34.4453 4.10872 34.3878C5.20167 29.6783 7.37935 25.2237 10.4034 21.517C10.4363 21.4759 10.5021 21.4677 10.5514 21.5006C10.5925 21.5334 10.6007 21.5992 10.5678 21.6485C7.56014 25.3388 5.3989 29.7605 4.31416 34.4371C4.30595 34.4864 4.26486 34.5193 4.21555 34.5193L4.20733 34.511Z" fill="black"/>
<path d="M58.7972 20.128C58.7561 20.128 58.715 20.1034 58.6986 20.0623L57.8028 17.5062C57.7864 17.4487 57.8111 17.3911 57.8686 17.3747C57.9261 17.3583 57.9836 17.3829 58.0001 17.4404L58.8958 19.9965C58.9122 20.054 58.8876 20.1116 58.8301 20.128C58.8218 20.128 58.8054 20.128 58.7972 20.128Z" fill="black"/>
<path d="M58.8223 47.6941C58.773 47.6941 58.7319 47.6612 58.7237 47.6037C58.7155 47.5462 58.7566 47.4968 58.8059 47.4886C59.6112 47.3653 60.359 46.7982 60.8028 45.9764C61.189 45.2695 61.3534 44.3737 61.2876 43.3874C61.2876 43.3299 61.3287 43.2806 61.3862 43.2806C61.4438 43.2806 61.4931 43.3217 61.4931 43.3792C61.5588 44.4065 61.3862 45.3435 60.9836 46.0832C60.5069 46.9626 59.7098 47.5626 58.8388 47.7023H58.8223V47.6941Z" fill="black"/>
<path d="M58.649 38.4643C58.5914 38.4643 58.5504 38.4232 58.5421 38.3657L58.46 32.1029C58.46 32.0454 58.5011 31.9961 58.5586 31.9961C58.6079 31.9878 58.6654 32.0372 58.6654 32.0947L58.7476 38.3575C58.7476 38.415 58.7065 38.4643 58.649 38.4643Z" fill="black"/>
<path d="M56.3076 38.678C56.2501 38.678 56.209 38.6287 56.209 38.5712L56.2336 35.1768C56.2336 35.1192 56.2829 35.0781 56.3405 35.0781C56.398 35.0781 56.4391 35.1275 56.4391 35.185L56.4144 38.5794C56.4144 38.6369 56.3651 38.678 56.3076 38.678Z" fill="black"/>
<path d="M14.5617 43.3217C14.4795 43.3217 14.3891 43.2888 14.3316 43.2148C14.2166 43.0915 14.233 42.8943 14.3563 42.7792C14.9726 42.2286 15.7944 41.908 16.6161 41.8998C16.7887 41.8998 16.9202 42.0395 16.9284 42.2039C16.9284 42.3765 16.7969 42.5162 16.6243 42.5162C15.9505 42.5244 15.2684 42.7874 14.7671 43.2395C14.7096 43.2888 14.6357 43.3217 14.5617 43.3217Z" fill="black"/>
<path d="M43.9402 44.6285C43.858 44.6285 43.7758 44.5956 43.7101 44.5298C43.2417 44.0203 42.5678 43.6915 41.8775 43.6422C41.705 43.6258 41.5817 43.4778 41.5981 43.3134C41.6146 43.1408 41.7625 43.0176 41.9269 43.034C42.7733 43.0998 43.5868 43.5025 44.1621 44.1189C44.2771 44.2422 44.2689 44.4394 44.1456 44.5545C44.0881 44.612 44.0141 44.6367 43.932 44.6367L43.9402 44.6285Z" fill="black"/>
<path d="M58.2387 11.1201C58.2387 11.1201 58.2059 11.1201 58.1976 11.1119C58.1483 11.0873 58.1237 11.0215 58.1483 10.9722C59.4139 8.39147 61.041 6.01621 62.9803 3.92862C63.0214 3.88753 63.0872 3.88753 63.1282 3.92862C63.1693 3.96972 63.1693 4.03547 63.1282 4.07656C61.1971 6.14772 59.5782 8.49831 58.3291 11.0708C58.3127 11.1037 58.2716 11.1284 58.2387 11.1284V11.1201Z" fill="black"/>
<path d="M59.7835 13.1338C59.7835 13.1338 59.7425 13.1338 59.726 13.1173C59.6767 13.0844 59.6685 13.0187 59.7014 12.9776C60.5724 11.6955 61.7229 10.6023 63.0295 9.81333C63.0788 9.78045 63.1446 9.79689 63.1692 9.84621C63.2021 9.89552 63.1857 9.96127 63.1363 9.98593C61.8544 10.7667 60.7286 11.8352 59.8739 13.0927C59.8575 13.1255 59.8246 13.1338 59.7918 13.1338H59.7835Z" fill="black"/>
<path d="M61.2874 64.4359C61.2874 64.4359 61.2134 64.4195 61.197 64.3784C59.9479 62.0278 59.2001 59.3731 59.0439 56.7102C59.0439 56.6527 59.085 56.6034 59.1426 56.6034C59.2001 56.6034 59.2494 56.6445 59.2494 56.702C59.4055 59.3402 60.1451 61.9621 61.3778 64.288C61.4024 64.3373 61.3778 64.4031 61.3367 64.4277C61.3202 64.4359 61.3038 64.4359 61.2874 64.4359Z" fill="black"/>
<path d="M59.0771 64.6578C59.0771 64.6578 59.0113 64.6414 58.9867 64.6085C58.3457 63.5319 57.8609 62.3648 57.5404 61.1402C57.5239 61.0826 57.5568 61.0251 57.6143 61.0169C57.6718 61.0004 57.7294 61.0333 57.7376 61.0909C58.0499 62.2908 58.5265 63.4415 59.1592 64.5017C59.1921 64.551 59.1757 64.6167 59.1264 64.6414C59.1099 64.6496 59.0935 64.6578 59.0771 64.6578Z" fill="black"/>
<path d="M51.2293 45.4997C51.1143 45.4997 51.0075 45.4339 50.9499 45.3271C50.876 45.1791 50.9335 44.9901 51.0896 44.9161C52.9057 43.9956 54.5575 42.7957 56.0038 41.3574C56.1271 41.2341 56.3161 41.2341 56.4393 41.3574C56.5626 41.4806 56.5626 41.6697 56.4393 41.793C54.9519 43.2806 53.2427 44.5134 51.369 45.4668C51.328 45.4914 51.2786 45.4997 51.2293 45.4997Z" fill="black"/>
</g>
<defs>
<clipPath id="clip0_219_2710">
<rect width="74" height="73" fill="white"/>
</clipPath>
</defs>
</svg>
