<svg width="47" height="85" viewBox="0 0 47 85" fill="none" xmlns="http://www.w3.org/2000/svg">
<g clip-path="url(#clip0_219_2780)">
<path d="M11.5504 39.12C10.5004 39.05 9.45044 39.08 8.40044 39.19C7.95044 39.24 7.46044 39.32 7.15044 39.62C6.90044 39.86 6.83044 40.19 6.78044 40.51C6.61044 41.73 6.76044 42.99 7.24044 44.15C7.33044 44.36 7.43044 44.58 7.64044 44.72C7.87044 44.87 8.18044 44.89 8.47044 44.89C9.95044 44.92 11.4404 44.82 12.8904 44.57C13.3204 43.37 13.5204 42.1 13.4604 40.84C13.4404 40.43 13.3904 40 13.1404 39.64C12.8904 39.29 12.3904 39.03 11.5504 39.11V39.12Z" fill="#F5E400"/>
<path d="M8.98042 45.38C8.81042 45.38 8.64042 45.38 8.46042 45.38C8.11042 45.38 7.71042 45.35 7.37042 45.13C7.05042 44.92 6.89042 44.61 6.78042 44.33C6.27042 43.09 6.10042 41.74 6.29042 40.43C6.35042 40.04 6.45042 39.6 6.81042 39.26C7.22042 38.87 7.79042 38.76 8.35042 38.7C9.41042 38.59 10.4804 38.56 11.5404 38.63C12.7604 38.53 13.3204 39.05 13.5404 39.37C13.8604 39.83 13.9304 40.36 13.9504 40.83C14.0104 42.16 13.8104 43.48 13.3504 44.75C13.2904 44.92 13.1404 45.04 12.9704 45.07C11.6604 45.29 10.3204 45.4 8.98042 45.4V45.38ZM10.3704 39.57C9.73042 39.57 9.09042 39.6 8.45042 39.67C8.08042 39.71 7.68042 39.77 7.49042 39.96C7.35042 40.1 7.30042 40.33 7.27042 40.57C7.11042 41.71 7.26042 42.88 7.70042 43.96C7.77042 44.13 7.83042 44.25 7.92042 44.3C8.05042 44.38 8.33042 44.39 8.49042 44.39C9.84042 44.42 11.2004 44.33 12.5304 44.13C12.8804 43.07 13.0304 41.97 12.9704 40.86C12.9504 40.52 12.9204 40.17 12.7404 39.92C12.5604 39.66 12.1504 39.54 11.6004 39.6C11.5704 39.6 11.5504 39.6 11.5204 39.6C11.1404 39.58 10.7604 39.56 10.3804 39.56L10.3704 39.57Z" fill="black"/>
<path d="M36.3405 39.12C35.2905 39.05 34.2405 39.08 33.1905 39.19C32.7405 39.24 32.2505 39.32 31.9405 39.62C31.6905 39.86 31.6205 40.19 31.5705 40.51C31.4005 41.73 31.5505 42.99 32.0305 44.15C32.1205 44.36 32.2205 44.58 32.4305 44.72C32.6605 44.87 32.9705 44.89 33.2605 44.89C34.7405 44.92 36.2305 44.82 37.6805 44.57C38.1105 43.37 38.3105 42.1 38.2505 40.84C38.2305 40.43 38.1805 40 37.9305 39.64C37.6805 39.29 37.1805 39.03 36.3405 39.11V39.12Z" fill="#F5E400"/>
<path d="M33.7802 45.38C33.6102 45.38 33.4402 45.38 33.2602 45.38C32.9102 45.38 32.5102 45.35 32.1702 45.13C31.8502 44.92 31.6902 44.61 31.5802 44.33C31.0702 43.09 30.9002 41.74 31.0902 40.43C31.1502 40.04 31.2502 39.6 31.6102 39.26C32.0202 38.87 32.5902 38.76 33.1502 38.7C34.2102 38.59 35.2802 38.56 36.3402 38.63C37.5602 38.52 38.1202 39.05 38.3402 39.37C38.6602 39.83 38.7302 40.36 38.7502 40.83C38.8102 42.16 38.6102 43.48 38.1502 44.75C38.0902 44.92 37.9402 45.04 37.7702 45.07C36.4602 45.29 35.1202 45.4 33.7802 45.4V45.38ZM35.1702 39.57C34.5302 39.57 33.8902 39.6 33.2502 39.67C32.8802 39.71 32.4802 39.77 32.2902 39.96C32.1502 40.1 32.1002 40.33 32.0702 40.57C31.9102 41.71 32.0602 42.88 32.5002 43.96C32.5702 44.13 32.6302 44.25 32.7202 44.3C32.8502 44.38 33.1302 44.39 33.2902 44.39C34.6402 44.42 36.0002 44.33 37.3302 44.13C37.6802 43.07 37.8302 41.97 37.7702 40.86C37.7502 40.52 37.7202 40.17 37.5402 39.92C37.3602 39.66 36.9502 39.54 36.4002 39.6C36.3702 39.6 36.3502 39.6 36.3202 39.6C35.9402 39.58 35.5602 39.56 35.1802 39.56L35.1702 39.57Z" fill="black"/>
<path d="M21.05 76.53C20.99 71.38 20.64 66.24 20 61.13C22.28 61.04 24.48 61.02 27.19 61.21C26.6 66.28 26.3 71.39 26.28 76.49C24.63 76.69 22.96 76.82 21.06 76.52L21.05 76.53Z" fill="#F5E400"/>
<path d="M23.3502 77.19C22.6002 77.19 21.8102 77.14 20.9702 77.01C20.7302 76.97 20.5602 76.77 20.5502 76.53C20.4902 71.42 20.1402 66.26 19.5002 61.19C19.4802 61.05 19.5202 60.92 19.6102 60.81C19.7002 60.7 19.8302 60.64 19.9702 60.64C22.0002 60.56 24.2902 60.51 27.2102 60.72C27.3402 60.72 27.4702 60.79 27.5502 60.9C27.6402 61 27.6802 61.14 27.6602 61.27C27.0802 66.31 26.7702 71.43 26.7502 76.5C26.7502 76.75 26.5602 76.96 26.3202 76.99C25.4202 77.1 24.4302 77.2 23.3402 77.2L23.3502 77.19ZM21.5302 76.1C23.1002 76.3 24.4902 76.2 25.7802 76.06C25.8102 71.27 26.1002 66.43 26.6302 61.67C24.2402 61.52 22.2902 61.54 20.5402 61.6C21.1302 66.4 21.4602 71.27 21.5202 76.1H21.5302Z" fill="black"/>
<path d="M38.2706 83.47C28.3106 83.74 18.3506 83.9 8.39062 83.97C11.3506 79.22 17.2506 75.92 23.6006 75.28C29.7006 75.5 35.5706 78.51 38.2706 83.48V83.47Z" fill="#F5E400"/>
<path d="M8.39017 84.46C8.21017 84.46 8.05017 84.36 7.96017 84.21C7.87017 84.05 7.88017 83.86 7.97017 83.71C10.9902 78.87 16.9602 75.45 23.5502 74.79C23.5702 74.79 23.6002 74.79 23.6202 74.79C30.1202 75.02 36.0402 78.34 38.7002 83.24C38.7802 83.39 38.7802 83.57 38.7002 83.72C38.6102 83.87 38.4602 83.96 38.2902 83.97C28.3802 84.24 18.3302 84.41 8.40017 84.47L8.39017 84.46ZM23.6102 75.77C17.6802 76.38 12.3002 79.3 9.31017 83.47C18.6502 83.41 28.0902 83.25 37.4102 83C34.7502 78.79 29.4302 75.98 23.6002 75.77H23.6102Z" fill="black"/>
<path d="M23.7396 61.55C20.4796 61.55 17.1996 61.35 13.9796 60.96C10.4496 60.53 6.4896 59.77 3.8696 57.3C1.6496 55.21 0.909605 52.33 0.519605 50.06C0.0696049 47.44 -0.0903951 44.78 0.0596049 42.14C0.0696049 41.89 0.269605 41.69 0.519605 41.68C2.5196 41.57 4.4496 41.46 6.3796 41.35C6.6496 41.35 6.8796 41.54 6.8996 41.81C6.9196 42.08 6.7096 42.31 6.4396 42.33C4.6496 42.43 2.86961 42.53 1.0196 42.64C0.909605 45.06 1.0696 47.5 1.4896 49.9C1.8596 52.02 2.5396 54.7 4.5396 56.59C6.9496 58.86 10.7196 59.58 14.0896 59.98C17.4196 60.38 20.7996 60.57 24.1596 60.56C28.0096 60.54 30.8496 60.23 33.3896 59.54C35.6296 58.94 38.7596 57.7 40.9096 55.25C43.9196 51.81 44.0596 47.17 43.8596 42.29H38.4696C38.1996 42.29 37.9796 42.08 37.9796 41.81C37.9796 41.54 38.1996 41.32 38.4696 41.32H44.3296C44.5896 41.32 44.8096 41.52 44.8296 41.78C45.0696 47.04 45.0096 52.08 41.6596 55.9C39.3496 58.53 36.0296 59.85 33.6596 60.49C30.2996 61.39 26.8296 61.53 24.1796 61.54C24.0396 61.54 23.8996 61.54 23.7496 61.54L23.7396 61.55Z" fill="black"/>
<path d="M40.4502 15.4C40.4502 15.4 40.3902 15.4 40.3602 15.4C40.0902 15.35 39.9202 15.09 39.9702 14.82C40.6302 11.42 39.6702 7.86 37.3502 5.05C37.1802 4.84 37.2102 4.53 37.4202 4.36C37.6302 4.19 37.9402 4.22 38.1102 4.43C40.6202 7.47 41.6502 11.33 40.9402 15.01C40.8902 15.25 40.6902 15.41 40.4602 15.41L40.4502 15.4Z" fill="black"/>
<path d="M46.0505 15.92C46.0505 15.92 45.9805 15.92 45.9405 15.91C45.6705 15.85 45.5105 15.59 45.5705 15.32C46.7105 10.15 44.7405 4.61 40.4205 0.86C40.2105 0.68 40.1905 0.37 40.3705 0.17C40.5505 -0.0299999 40.8605 -0.0599999 41.0605 0.12C45.6505 4.1 47.7405 10.01 46.5205 15.54C46.4705 15.77 46.2705 15.93 46.0405 15.93L46.0505 15.92Z" fill="black"/>
<path d="M13.2399 32.76C13.0199 25.26 12.6699 20.93 12.9799 14.62C13.0699 12.73 13.3299 11.25 14.8099 9.76C16.4299 8.14 17.8399 7.04 20.4099 6.65C23.3199 6.21 27.8999 6.54 30.1499 8.06C32.4399 9.61 32.0899 12.09 32.1699 14.47C32.3299 19.21 32.1699 30.92 31.9599 33.03C31.8899 33.7 31.2999 37.21 30.9299 37.82C30.2299 38.97 28.6099 39.59 27.0299 39.91C21.9899 40.93 13.3499 36.84 13.2299 32.77L13.2399 32.76Z" fill="white"/>
<path d="M25.3797 40.55C22.1697 40.55 18.1197 39.16 15.4197 37.01C13.7197 35.66 12.7997 34.19 12.7497 32.77C12.6897 30.88 12.6297 29.19 12.5697 27.62C12.3997 22.99 12.2597 19.33 12.4897 14.59C12.5797 12.81 12.7897 11.08 14.4697 9.41C16.2697 7.61 17.7397 6.56 20.3497 6.16C23.5197 5.67 28.1597 6.1 30.4397 7.64C32.6297 9.12 32.6497 11.32 32.6597 13.45C32.6597 13.78 32.6597 14.11 32.6797 14.44C32.8397 19.27 32.6797 30.95 32.4697 33.06C32.4097 33.64 31.8197 37.31 31.3697 38.06C30.6897 39.17 29.2697 39.95 27.1497 40.37C26.6097 40.48 26.0097 40.53 25.3897 40.53L25.3797 40.55ZM23.0197 6.96C22.1197 6.96 21.2497 7.02 20.4897 7.14C18.1397 7.5 16.8497 8.42 15.1597 10.11C13.8497 11.41 13.5697 12.66 13.4697 14.64C13.2397 19.34 13.3797 22.98 13.5497 27.58C13.6097 29.15 13.6697 30.84 13.7297 32.74C13.7597 33.84 14.5797 35.08 16.0197 36.23C19.0497 38.64 23.8497 40.04 26.9397 39.41C28.2097 39.15 29.8597 38.62 30.5097 37.55C30.7897 37.09 31.3897 33.82 31.4697 32.97C31.6797 30.87 31.8397 19.28 31.6697 14.48C31.6597 14.14 31.6597 13.8 31.6497 13.46C31.6297 11.41 31.6197 9.65 29.8597 8.46C28.3397 7.43 25.5397 6.96 22.9997 6.96H23.0197Z" fill="black"/>
<path d="M33.6296 33.01C33.7596 36.37 33.3396 50.38 30.4096 53.04C27.2896 55.87 18.7596 55.82 15.5496 53.3C12.0796 50.57 10.6796 37.74 11.4096 32.66C17.5696 32.79 27.2296 32.81 33.6196 33L33.6296 33.01Z" fill="#F5E400"/>
<path d="M22.7497 55.66C19.8297 55.66 16.9197 55.01 15.2497 53.69C11.4297 50.68 10.2397 37.33 10.9297 32.6C10.9697 32.35 11.1797 32.17 11.4297 32.18C14.0497 32.24 17.2597 32.27 20.6597 32.31C25.2397 32.36 29.9697 32.41 33.6497 32.52C33.9097 32.52 34.1197 32.73 34.1297 32.99C34.2097 35.19 34.0197 50.44 30.7497 53.41C29.0997 54.9 25.9297 55.66 22.7597 55.66H22.7497ZM11.8397 33.17C11.2697 38.36 12.6897 50.43 15.8497 52.92C18.9897 55.39 27.2297 55.25 30.0697 52.68C32.5397 50.44 33.2597 38.34 33.1397 33.49C29.5397 33.39 25.0097 33.34 20.6297 33.29C17.4197 33.26 14.3697 33.22 11.8397 33.17Z" fill="black"/>
<path d="M20.5897 41.35C19.7497 41.77 19.2397 42.57 19.3197 43.35C19.3997 44.13 20.0597 44.86 20.9697 45.17C22.0297 45.53 23.3897 45.29 24.1197 44.58C24.8497 43.88 24.8797 42.77 24.1597 42.05C23.4397 41.34 21.8397 40.73 20.5897 41.35Z" fill="#F5E400"/>
<path d="M22.0199 45.83C21.6099 45.83 21.1999 45.77 20.8099 45.64C19.6999 45.26 18.9299 44.39 18.8299 43.4C18.7299 42.42 19.3499 41.42 20.3799 40.91C21.9099 40.15 23.7199 40.91 24.5199 41.7C24.9599 42.13 25.1899 42.7 25.1899 43.3C25.1899 43.91 24.9299 44.49 24.4699 44.93C23.8699 45.5 22.9499 45.82 22.0299 45.82L22.0199 45.83ZM20.8099 41.8C20.1499 42.13 19.7499 42.73 19.8099 43.31C19.8699 43.9 20.3999 44.46 21.1299 44.71C22.0199 45.01 23.1899 44.81 23.7799 44.23C24.0499 43.98 24.1899 43.65 24.1999 43.3C24.1999 42.97 24.0699 42.65 23.8199 42.41C23.2299 41.82 21.8499 41.28 20.8099 41.8Z" fill="black"/>
<path d="M13.4696 30.39C13.3796 30.39 13.3096 30.32 13.3096 30.23C13.3096 30.14 13.3796 30.06 13.4696 30.06C19.5596 29.87 25.7196 29.83 31.8096 29.95C31.8996 29.95 31.9696 30.03 31.9696 30.12C31.9696 30.21 31.8896 30.27 31.7996 30.28C25.7196 30.17 19.5596 30.2 13.4796 30.39H13.4696Z" fill="black"/>
<path d="M32.1393 11.9L28.1893 11.72C28.0993 11.72 28.0293 11.64 28.0293 11.55C28.0293 11.46 28.1093 11.38 28.1993 11.39L32.1493 11.57C32.2393 11.57 32.3093 11.65 32.3093 11.74C32.3093 11.83 32.2293 11.9 32.1493 11.9H32.1393Z" fill="black"/>
<path d="M31.7899 14.29L27.6099 14.04C27.5199 14.04 27.4499 13.96 27.4599 13.87C27.4599 13.78 27.5399 13.71 27.6299 13.72L31.8099 13.97C31.8999 13.97 31.9699 14.05 31.9599 14.14C31.9599 14.23 31.8799 14.29 31.7999 14.29H31.7899Z" fill="black"/>
<path d="M31.8102 16.93L27.5702 16.79C27.4802 16.79 27.4102 16.71 27.4102 16.62C27.4102 16.53 27.4902 16.46 27.5802 16.46L31.8202 16.6C31.9102 16.6 31.9802 16.68 31.9802 16.77C31.9802 16.86 31.9002 16.93 31.8202 16.93H31.8102Z" fill="black"/>
<path d="M31.8601 19.66H27.5301C27.4401 19.66 27.3701 19.59 27.3701 19.49C27.3701 19.39 27.4401 19.33 27.5301 19.33H31.8601C31.9501 19.33 32.0201 19.4 32.0201 19.5C32.0201 19.6 31.9501 19.66 31.8601 19.66Z" fill="black"/>
<path d="M27.9198 22.55C27.8298 22.55 27.7598 22.48 27.7598 22.39C27.7598 22.3 27.8298 22.23 27.9198 22.22L31.8798 22.2C31.9698 22.2 32.0398 22.27 32.0398 22.36C32.0398 22.45 31.9698 22.52 31.8798 22.52L27.9198 22.54V22.55Z" fill="black"/>
<path d="M28.16 25.48C28.07 25.48 28 25.41 28 25.32C28 25.23 28.07 25.16 28.16 25.16H31.97C32.06 25.15 32.13 25.22 32.13 25.31C32.13 25.4 32.06 25.47 31.97 25.47H28.16V25.48Z" fill="black"/>
<path d="M28.5604 28.13C28.4804 28.13 28.4004 28.07 28.4004 27.98C28.4004 27.89 28.4604 27.81 28.5504 27.8C29.7004 27.7 30.8704 27.69 32.0204 27.78C32.1104 27.78 32.1804 27.87 32.1704 27.96C32.1704 28.05 32.0904 28.12 31.9904 28.11C30.8604 28.02 29.7104 28.03 28.5804 28.13H28.5704H28.5604Z" fill="black"/>
<g opacity="0.13">
<path d="M12.4404 43.81C12.3804 43.07 11.3904 42.61 10.6104 42.87C9.47043 42.85 9.84043 42.8 9.16043 42.75C8.77043 42.71 8.38043 42.58 7.98043 42.69C7.47043 42.83 7.02043 43.2 7.00043 43.67C6.83043 44.35 7.56043 45.03 8.35043 45.01C9.17043 45.12 10.0104 45.11 10.8404 45.13C11.7104 45.27 12.6404 44.59 12.4504 43.81H12.4404Z" fill="black"/>
</g>
<g opacity="0.13">
<path d="M37.6801 42.74C37.1301 42.24 36.3201 42.47 35.6201 42.44C34.8201 42.53 33.8901 42.28 33.1501 42.51C31.8001 42.96 32.2301 44.75 33.6701 44.73C34.6401 44.79 35.6101 44.69 36.5801 44.71C37.8101 44.87 38.5801 43.49 37.6901 42.75L37.6801 42.74Z" fill="black"/>
</g>
<g opacity="0.13">
<path d="M30.0798 50.62C29.7498 50.69 29.5298 50.9 29.2798 51.09C29.1998 51.13 29.0298 51.22 28.8398 51.32C28.6998 51.37 28.5598 51.44 28.4098 51.49C28.3398 51.52 28.2798 51.54 28.2098 51.57C27.9198 51.67 27.1098 51.93 26.9098 51.96C24.4798 52.48 23.1598 52.88 21.1698 52.78C21.0098 52.75 20.4498 52.67 20.2698 52.62C18.8998 52.29 17.7198 52.03 17.1498 51.75C16.3398 51.32 16.4398 51.37 15.4898 50.62C15.2498 50.42 15.0598 50.13 14.7298 50.05C13.5898 49.58 12.5398 50.94 13.4498 51.69C13.5198 51.76 13.5998 51.82 13.6698 51.89C13.6798 52.11 13.7898 52.33 14.0098 52.51C14.7298 53.27 15.5898 53.94 16.5698 54.45C17.9698 55.07 19.5698 55.38 21.1398 55.31C23.0898 55.28 25.0298 55.04 26.9098 54.6C27.1298 54.55 27.8598 54.29 28.1898 54.16H28.1498C28.1498 54.16 28.1798 54.16 28.1898 54.16C28.3098 54.12 28.3698 54.09 28.3298 54.11C29.1898 53.81 29.9898 53.4 30.6698 52.86C30.8898 52.72 31.4898 52.28 31.5198 52.07C31.9698 51.3 31.0098 50.39 30.0698 50.64L30.0798 50.62Z" fill="black"/>
</g>
<g opacity="0.13">
<path d="M36.1205 81.4C35.9305 81.42 35.6605 81.44 35.5105 81.44C31.2805 81.66 27.0305 81.6 22.7905 81.55C19.7305 81.55 16.6805 81.74 13.6205 81.76C12.5205 81.76 11.4105 81.74 10.3105 81.85C9.74047 81.92 9.08047 81.88 8.65047 82.28C7.76047 83 8.43047 84.4 9.65047 84.37C11.2705 84.14 12.9205 84.2 14.5505 84.16C17.4105 84 20.2805 83.77 23.1505 83.72C25.4905 83.76 27.8205 83.82 30.1605 83.72C31.6005 83.72 33.0305 83.8 34.4705 83.7C35.0105 83.67 35.5505 83.68 36.0905 83.73H36.1105C36.1905 83.75 36.2305 83.76 36.2205 83.75H36.2305L36.2805 83.77C38.8605 84.15 38.6305 80.81 36.0905 81.4H36.1205Z" fill="black"/>
</g>
</g>
<defs>
<clipPath id="clip0_219_2780">
<rect width="46.87" height="84.46" fill="white"/>
</clipPath>
</defs>
</svg>
