<svg width="49" height="64" viewBox="0 0 49 64" fill="none" xmlns="http://www.w3.org/2000/svg">
<g clip-path="url(#clip0_219_2746)">
<path d="M13.6685 0.562204C23.8119 0.986729 33.9439 1.41125 44.0874 1.84725C45.7704 1.91609 47.9651 2.45536 48.3972 4.3944C48.7156 21.6278 48.6019 38.8727 48.0674 56.1061C47.9878 58.6877 47.6808 61.6708 45.4974 63.0362C43.6894 63.5984 41.7562 63.5869 39.8685 63.5869C29.6 63.541 19.3429 63.4837 9.07436 63.4378C6.35656 63.4263 3.35447 63.3001 1.36445 61.2234C0.397871 59.2958 0.409242 57.047 0.443357 54.8899C0.682159 39.171 0.920962 23.4407 1.17114 7.72176C1.19388 6.3105 1.39857 4.92219 1.76246 3.55683C2.76315 -0.172109 9.88174 0.401573 13.6685 0.562204Z" fill="white"/>
<path d="M40.5962 63.9999C40.3574 63.9999 40.1072 63.9999 39.8684 63.9999L9.07427 63.8507C6.14041 63.8392 3.10421 63.6442 1.05733 61.4986C1.02322 61.4642 1.00047 61.4298 0.989101 61.3953C-0.0570812 59.3301 -0.0229665 56.955 0.0111481 54.8554L0.738927 7.68719C0.76167 6.27593 0.966358 4.84173 1.35299 3.41899C2.37643 -0.390256 8.73312 -0.0919412 12.9406 0.103111C13.2021 0.114584 13.4523 0.126058 13.6911 0.137532L44.11 1.42258C45.6452 1.49142 48.2947 1.95037 48.8178 4.30247C48.8178 4.32541 48.8178 4.35983 48.8178 4.39425C49.1362 21.5588 49.0225 38.9644 48.4767 56.1175C48.3857 59.0547 47.9877 61.969 45.702 63.3918C45.6679 63.4147 45.6338 63.4262 45.5997 63.4376C43.9508 63.9425 42.2451 63.9999 40.5735 63.9999H40.5962ZM1.70551 60.9479C3.52496 62.8066 6.22001 62.9672 9.0629 62.9902L39.8571 63.1393C41.6765 63.1393 43.5528 63.1623 45.304 62.623C47.2031 61.4068 47.5442 58.7564 47.6238 56.083C48.1583 38.9529 48.272 21.5818 47.965 4.44015C47.5328 2.68468 45.3381 2.329 44.0532 2.27163L13.6456 0.998055C13.4068 0.998055 13.1567 0.975108 12.8951 0.963634C9.19936 0.79153 3.01324 0.504689 2.17174 3.63699C1.80785 4.99088 1.61454 6.35625 1.59179 7.69867L0.864014 54.8668C0.8299 56.8403 0.795785 59.0777 1.70551 60.9479Z" fill="black"/>
<path d="M7.84611 7.46934C6.64072 7.65292 6.69758 8.32986 6.70895 9.23628L6.78855 15.7877C6.78855 16.0975 6.78855 16.4188 6.98187 16.7056C7.35713 17.2793 8.31234 17.4973 9.16521 17.6006C10.4274 17.7497 11.7124 17.7956 12.9974 17.83C22.0833 18.0939 31.1919 18.3464 40.2323 17.7497C40.6758 17.7153 41.1534 17.6809 41.5173 17.4858C42.0403 17.199 42.1882 16.6712 42.2678 16.2008C42.6089 14.2732 42.6658 12.3227 42.4497 10.3836C42.3701 9.68375 42.2109 8.91502 41.5173 8.42165C40.9146 7.99713 40.0503 7.87092 39.2316 7.77913C37.1961 7.54966 35.1492 7.44639 33.1023 7.45787C30.7939 7.45787 13.7366 6.5285 7.84611 7.45787V7.46934Z" fill="white"/>
<path d="M28.0077 18.5644C22.9588 18.5644 17.9326 18.4152 12.9859 18.2775C11.7123 18.2431 10.4046 18.2087 9.11961 18.048C8.28948 17.9448 7.12958 17.7268 6.62924 16.958C6.37906 16.5679 6.36769 16.1319 6.36769 15.8107L6.28809 9.16744C6.27672 8.32986 6.26535 7.29723 7.78913 7.05629C12.4174 6.33345 23.6524 6.7465 29.6907 6.95302C31.3851 7.01039 32.6019 7.05629 33.1136 7.05629C35.1718 7.05629 37.2528 7.15955 39.2883 7.37755C40.1298 7.46934 41.085 7.60702 41.7673 8.10039C42.5861 8.67407 42.7794 9.52312 42.8704 10.3607C43.0978 12.3342 43.0296 14.3421 42.677 16.2926C42.6088 16.6712 42.4724 17.4744 41.6991 17.8874C41.2783 18.1169 40.7894 18.1628 40.2435 18.1972C36.1839 18.4611 32.0901 18.5644 27.9964 18.5644H28.0077ZM7.91422 7.89386C7.11821 8.02007 7.11821 8.28397 7.12958 9.14449L7.20919 15.7877C7.20919 16.0975 7.22056 16.304 7.33427 16.4762C7.5617 16.8204 8.18714 17.0613 9.21058 17.1875C10.4614 17.3367 11.7464 17.3711 12.9973 17.4055C21.9353 17.6579 31.169 17.9218 40.198 17.3252C40.5619 17.3023 41.0168 17.2678 41.3011 17.1187C41.6309 16.9466 41.756 16.6138 41.8356 16.1319C42.1653 14.2503 42.2336 12.3342 42.0175 10.441C41.9379 9.7067 41.7787 9.14449 41.267 8.78881C40.7439 8.42165 39.9251 8.30691 39.186 8.2266C37.1732 8.0086 35.1377 7.89386 33.1022 7.90534C32.5791 7.90534 31.351 7.85944 29.6453 7.80207C23.6297 7.58407 12.4515 7.1825 7.90285 7.89386H7.91422Z" fill="black"/>
<path d="M8.08496 27.3991L8.17593 32.6425C8.17593 32.8376 8.19868 33.0556 8.35788 33.1818C8.52845 33.3195 8.79 33.3195 9.01743 33.308C10.78 33.2277 12.554 33.3195 14.2938 33.5719C14.6236 33.6178 15.0557 33.6293 15.1808 33.3654C15.2263 33.2736 15.2149 33.1588 15.2035 33.0441C15.033 31.7132 15.3741 28.3514 14.6691 27.5597C12.6563 27.4105 10.6436 27.2614 8.08496 27.3761V27.3991Z" fill="white"/>
<path d="M14.6348 34.0423C14.5097 34.0423 14.3846 34.0423 14.2368 34.0079C12.5197 33.7555 10.7685 33.6637 9.04002 33.744C8.80122 33.744 8.39184 33.7784 8.08481 33.5145C7.75504 33.2391 7.75504 32.8376 7.75504 32.6425L7.66406 27.3991C7.66406 27.1696 7.84601 26.9745 8.07344 26.9631C10.6548 26.8483 12.713 26.9975 14.7031 27.1466C14.8168 27.1466 14.9191 27.204 14.9987 27.2843C15.5332 27.8924 15.5787 29.3152 15.5787 31.2542C15.5787 31.9426 15.5787 32.5966 15.6355 33.0097C15.6469 33.1244 15.681 33.3539 15.5673 33.5719C15.4195 33.8817 15.1011 34.0423 14.6234 34.0423H14.6348ZM10.2454 32.8605C11.6214 32.8605 12.9973 32.9638 14.3619 33.1588C14.6007 33.1933 14.7372 33.1818 14.794 33.1588V33.1129C14.7258 32.654 14.7258 31.9656 14.7258 31.2542C14.7258 30.1642 14.7258 28.5579 14.4415 27.9842C12.6448 27.858 10.7799 27.7318 8.5283 27.8006L8.6079 32.631C8.6079 32.7802 8.61927 32.8376 8.63064 32.849C8.66476 32.872 8.78985 32.8835 9.00591 32.872C9.41528 32.849 9.83603 32.849 10.2568 32.849L10.2454 32.8605Z" fill="black"/>
<path d="M20.8105 27.7662C20.856 29.5102 20.8901 31.2657 20.9356 33.0097C20.9356 33.2047 20.9584 33.4227 21.1176 33.5489C21.2882 33.6866 21.5497 33.6866 21.7771 33.6752C23.5397 33.5834 25.3137 33.6637 27.0649 33.9046C27.3947 33.9505 27.8268 33.962 27.9519 33.6981C27.9974 33.5948 27.986 33.4916 27.9746 33.3768C27.7927 32.0459 28.1111 28.6726 27.406 27.8924C25.3933 27.7662 23.3805 27.6285 20.8219 27.7548L20.8105 27.7662Z" fill="white"/>
<path d="M27.3831 34.3636C27.2694 34.3636 27.1443 34.3636 27.0079 34.3406C25.2794 34.0997 23.5396 34.0308 21.8111 34.1111C21.5723 34.1226 21.1629 34.1456 20.8559 33.8932C20.5261 33.6293 20.5147 33.2162 20.5147 33.0212L20.3896 27.7777C20.3896 27.5482 20.5602 27.3532 20.799 27.3417C23.3917 27.204 25.45 27.3417 27.44 27.4794C27.5537 27.4794 27.6561 27.5367 27.7243 27.6171C28.2701 28.2137 28.327 29.6364 28.3384 31.5755C28.3384 32.2639 28.3384 32.9179 28.4066 33.3309C28.418 33.4457 28.4521 33.6752 28.3497 33.8932C28.2019 34.2144 27.8835 34.375 27.3945 34.375L27.3831 34.3636ZM23.2212 33.2162C24.5289 33.2162 25.8366 33.308 27.133 33.4916C27.3718 33.526 27.5082 33.5145 27.5651 33.4916V33.4457C27.4969 32.9867 27.4855 32.2983 27.4855 31.5869C27.4855 30.497 27.4627 28.8906 27.1785 28.3284C25.3818 28.2137 23.5168 28.099 21.2539 28.1907L21.3676 33.0212C21.3676 33.1703 21.3903 33.2277 21.3903 33.2392C21.4245 33.2621 21.5495 33.2736 21.7656 33.2621C22.2546 33.2392 22.7322 33.2277 23.2212 33.2277V33.2162Z" fill="black"/>
<path d="M33.5801 28.0875C33.6256 29.8315 33.6597 31.5869 33.7052 33.3309C33.7052 33.526 33.7279 33.744 33.8871 33.8702C34.0577 34.0079 34.3192 34.0079 34.5467 33.9964C36.3092 33.9046 38.0832 33.9849 39.8344 34.2259C40.1642 34.2718 40.5963 34.2833 40.7214 34.0194C40.7669 33.9161 40.7555 33.8128 40.7442 33.6981C40.5622 32.3672 40.8806 28.9939 40.1756 28.2137C38.1628 28.0875 36.15 27.9498 33.5914 28.076L33.5801 28.0875Z" fill="white"/>
<path d="M40.1527 34.6848C40.039 34.6848 39.9139 34.6848 39.7774 34.6619C38.0603 34.4209 36.3091 34.3521 34.5806 34.4324C34.3418 34.4439 33.9324 34.4668 33.6254 34.2144C33.2956 33.9505 33.2843 33.5375 33.2843 33.3424L33.1592 28.099C33.1592 27.8695 33.3298 27.6744 33.5686 27.663C36.1613 27.5253 38.2195 27.663 40.2095 27.8006C40.3233 27.8006 40.4256 27.858 40.4938 27.9383C41.0397 28.535 41.0965 29.9577 41.1079 31.8967C41.1079 32.5852 41.1079 33.2391 41.1761 33.6522C41.1875 33.7669 41.2216 33.9964 41.1193 34.2144C40.9714 34.5357 40.653 34.6963 40.1641 34.6963L40.1527 34.6848ZM35.9907 33.5375C37.2984 33.5375 38.6062 33.6293 39.9025 33.8128C40.1413 33.8473 40.2778 33.8358 40.3346 33.8128V33.7669C40.2664 33.308 40.255 32.6196 40.255 31.9082C40.255 30.8182 40.2323 29.2119 39.948 28.6497C38.1513 28.535 36.2864 28.4202 34.0234 28.512L34.1371 33.3424C34.1371 33.4916 34.1599 33.5489 34.1599 33.5604C34.194 33.5834 34.3191 33.5948 34.5351 33.5834C35.0241 33.5604 35.5017 33.5489 35.9907 33.5489V33.5375Z" fill="black"/>
<path d="M8.44824 38.0696C8.48236 39.8136 8.5051 41.569 8.53922 43.313C8.53922 43.5081 8.56196 43.7261 8.72116 43.8523C8.89173 43.99 9.15328 43.99 9.38071 43.9785C11.1433 43.8982 12.9173 43.99 14.6571 44.2424C14.9869 44.2883 15.419 44.2997 15.5441 44.0359C15.5896 43.9441 15.5782 43.8293 15.5668 43.7146C15.3963 42.3836 15.7374 39.0219 15.0324 38.2302C13.0196 38.081 11.0068 37.9319 8.44824 38.0466V38.0696Z" fill="white"/>
<path d="M14.9874 44.7128C14.8623 44.7128 14.7372 44.7128 14.5894 44.6784C12.8723 44.426 11.121 44.3342 9.39256 44.4145C9.15376 44.426 8.74438 44.4374 8.43735 44.185C8.10757 43.9096 8.10757 43.5081 8.10757 43.313L8.0166 38.0696C8.0166 37.8401 8.19855 37.645 8.42598 37.6336C11.0187 37.5188 13.0769 37.668 15.067 37.8171C15.1807 37.8171 15.283 37.8745 15.3512 37.9548C15.8857 38.5629 15.9312 39.9857 15.9312 41.9247C15.9312 42.6131 15.9312 43.2671 15.9881 43.6802C15.9994 43.7949 16.0335 44.0244 15.9198 44.2424C15.772 44.5522 15.4536 44.7128 14.976 44.7128H14.9874ZM10.6093 43.531C11.9853 43.531 13.3612 43.6343 14.7258 43.8293C14.976 43.8638 15.1011 43.8523 15.1579 43.8293V43.7834C15.0897 43.3245 15.0897 42.6361 15.0897 41.9247C15.0897 40.8347 15.0897 39.2284 14.8054 38.6547C13.0087 38.5285 11.1551 38.3908 8.89221 38.4711L8.97181 43.3015C8.97181 43.4507 8.98318 43.5081 8.99455 43.5195C9.02867 43.5425 9.15376 43.554 9.36982 43.5425C9.79056 43.5195 10.1999 43.5195 10.6207 43.5195L10.6093 43.531Z" fill="black"/>
<path d="M21.1738 38.4252C21.2193 40.1692 21.2534 41.9247 21.2989 43.6687C21.2989 43.8638 21.3217 44.0818 21.4809 44.208C21.6514 44.3456 21.913 44.3456 22.1404 44.3342C23.903 44.2424 25.677 44.3227 27.4282 44.5636C27.758 44.6095 28.1901 44.621 28.3152 44.3571C28.3606 44.2539 28.3493 44.1506 28.3379 44.0359C28.156 42.7049 28.4744 39.3317 27.7693 38.5515C25.7566 38.4252 23.7438 38.2876 21.1852 38.4138L21.1738 38.4252Z" fill="white"/>
<path d="M27.7464 45.0226C27.6327 45.0226 27.5076 45.0226 27.3712 44.9996C25.6541 44.7587 23.9028 44.6899 22.1744 44.7702C21.9356 44.7816 21.5262 44.8046 21.2192 44.5522C20.8894 44.2883 20.878 43.8752 20.878 43.6917L20.7529 38.4482C20.7529 38.2187 20.9235 38.0237 21.1623 38.0122C23.755 37.886 25.8133 38.0122 27.8033 38.1499C27.917 38.1499 28.0193 38.2072 28.0876 38.2876C28.6334 38.8957 28.6903 40.3069 28.7016 42.246C28.7016 42.9344 28.7016 43.5884 28.7699 44.0014C28.7812 44.1162 28.8154 44.3457 28.713 44.5636C28.5652 44.8849 28.2468 45.0455 27.7578 45.0455L27.7464 45.0226ZM23.5731 43.8752C24.8808 43.8752 26.1885 43.967 27.4849 44.1506C27.7237 44.185 27.8601 44.1735 27.917 44.1506V44.1047C27.8488 43.6458 27.8374 42.9573 27.8374 42.246C27.8374 41.156 27.8147 39.5497 27.5304 38.9875C25.7337 38.8727 23.8801 38.758 21.6058 38.8498L21.7195 43.6802C21.7195 43.8293 21.7423 43.8867 21.7536 43.8982C21.7877 43.9211 21.9128 43.9326 22.1289 43.9211C22.6179 43.8982 23.0955 43.8867 23.5844 43.8867L23.5731 43.8752Z" fill="black"/>
<path d="M9.0293 48.7401L9.12027 53.9835C9.12027 54.1786 9.14301 54.3966 9.30221 54.5228C9.47279 54.6605 9.73433 54.6605 9.96176 54.649C11.7244 54.5687 13.4983 54.6605 15.2382 54.9129C15.5679 54.9588 16.0001 54.9702 16.1251 54.7063C16.1706 54.6146 16.1593 54.4998 16.1479 54.3851C15.9773 53.0541 16.3185 49.6924 15.6134 48.9007C13.6007 48.7515 11.5879 48.6024 9.0293 48.7171V48.7401Z" fill="white"/>
<path d="M15.5792 55.3833C15.4541 55.3833 15.329 55.3833 15.1812 55.3489C13.464 55.0965 11.7128 55.0047 9.98436 55.085C9.74555 55.085 9.33618 55.1194 9.02915 54.8555C8.69937 54.5801 8.69937 54.1786 8.69937 53.9835L8.6084 48.74C8.6084 48.5106 8.79034 48.3155 9.01777 48.304C11.6105 48.1893 13.6574 48.3385 15.6474 48.4876C15.7611 48.4876 15.8634 48.545 15.943 48.6253C16.4775 49.2334 16.523 50.6561 16.523 52.5952C16.523 53.2836 16.523 53.9376 16.5799 54.3507C16.5912 54.4654 16.6253 54.6949 16.5116 54.9129C16.3638 55.2227 16.0454 55.3833 15.5678 55.3833H15.5792ZM11.1897 54.2015C12.5657 54.2015 13.9417 54.3048 15.3062 54.4998C15.545 54.5342 15.6815 54.5228 15.7384 54.4998V54.4539C15.6701 53.995 15.6701 53.3066 15.6701 52.5952C15.6701 51.5052 15.6701 49.8989 15.3858 49.3367C13.5891 49.2105 11.7242 49.0843 9.47264 49.1531L9.55224 53.9835C9.55224 54.1327 9.56361 54.19 9.57498 54.2015C9.60909 54.2245 9.73418 54.2359 9.95024 54.2245C10.3596 54.2015 10.7804 54.2015 11.2011 54.2015H11.1897Z" fill="black"/>
<path d="M21.7539 49.0957C21.7994 50.8397 21.8335 52.5952 21.879 54.3392C21.879 54.5342 21.9017 54.7522 22.0609 54.8785C22.2315 55.0161 22.4931 55.0161 22.7205 55.0047C24.4831 54.9129 26.257 54.9932 28.0083 55.2341C28.338 55.28 28.7702 55.2915 28.8952 55.0276C28.9407 54.9244 28.9294 54.8211 28.918 54.7064C28.736 53.3754 29.0544 50.0022 28.3494 49.222C26.3366 49.0957 24.3239 48.9581 21.7653 49.0843L21.7539 49.0957Z" fill="white"/>
<path d="M28.3265 55.6931C28.2128 55.6931 28.0877 55.6931 27.9512 55.6701C26.2341 55.4292 24.4829 55.3603 22.7545 55.4407C22.5156 55.4521 22.1063 55.4751 21.7992 55.2227C21.4695 54.9473 21.4581 54.5457 21.4581 54.3507L21.333 49.1072C21.333 48.8777 21.5036 48.6827 21.7424 48.6712C24.3351 48.5335 26.382 48.6712 28.372 48.8089C28.4857 48.8089 28.5881 48.8663 28.6677 48.9466C29.2135 49.5432 29.2703 50.9659 29.2817 52.905C29.2817 53.5934 29.2817 54.2474 29.3499 54.6605C29.3613 54.7752 29.3954 55.0047 29.2931 55.2227C29.1453 55.5439 28.8269 55.7046 28.3379 55.7046L28.3265 55.6931ZM24.1645 54.5457C25.4723 54.5457 26.78 54.6375 28.065 54.8211C28.3038 54.8555 28.4402 54.844 28.4971 54.8211V54.7752C28.4289 54.3162 28.4175 53.6278 28.4175 52.9165C28.4175 51.8265 28.3947 50.2202 28.1104 49.6579C26.3137 49.5432 24.4488 49.4285 22.1859 49.5203L22.2996 54.3507C22.2996 54.4998 22.3223 54.5572 22.3223 54.5687C22.3564 54.5916 22.4815 54.6031 22.6976 54.5916C23.1866 54.5687 23.6642 54.5572 24.1532 54.5572L24.1645 54.5457Z" fill="black"/>
<path d="M33.8756 38.7924C33.9324 44.2653 33.8301 49.7383 33.8301 55.4866C35.8315 55.3948 37.8329 55.4521 39.6978 55.4866C40.0276 49.9104 39.6864 45.2062 40.0617 38.7809C38.1626 38.7121 35.9338 38.4941 33.8756 38.8039V38.7924Z" fill="#F5E400"/>
<path d="M33.8306 55.9226C33.7168 55.9226 33.6145 55.8767 33.5349 55.8078C33.4553 55.7275 33.3984 55.6128 33.3984 55.498C33.3984 53.1459 33.4098 50.8053 33.4326 48.5565C33.4553 45.2062 33.478 42.0394 33.4439 38.8153C33.4439 38.5973 33.5918 38.4138 33.8078 38.3793C35.5022 38.1269 37.3102 38.2187 38.9023 38.299C39.3003 38.322 39.6869 38.3449 40.0735 38.3564C40.1873 38.3564 40.301 38.4138 40.3692 38.4941C40.4488 38.5744 40.4829 38.6891 40.4829 38.8039C40.2896 42.1198 40.2896 44.9767 40.2896 47.7304C40.2896 50.3349 40.2896 52.8017 40.1304 55.5095C40.119 55.739 39.9257 55.9111 39.7096 55.9111H38.8795C37.242 55.8652 35.5477 55.8422 33.8533 55.9111H33.8306V55.9226ZM36.2868 55.0047C37.1624 55.0047 38.0267 55.0161 38.8795 55.0391H39.2889C39.4254 52.5264 39.4254 50.1972 39.4254 47.7304C39.4254 45.08 39.4254 42.3378 39.5959 39.194C39.3571 39.194 39.107 39.171 38.8568 39.1596C37.424 39.0907 35.7978 38.9989 34.2968 39.1825C34.3195 42.2919 34.2968 45.3439 34.2854 48.5565C34.274 50.6676 34.2513 52.8476 34.2513 55.0506C34.9336 55.0276 35.6159 55.0161 36.2868 55.0161V55.0047Z" fill="black"/>
<path d="M19.1613 15.7304C19.1613 15.7304 19.1158 15.7304 19.093 15.7074C19.0248 15.673 19.0021 15.5812 19.0362 15.5124C20.3553 13.1603 21.8336 10.8655 23.4256 8.68555C23.4711 8.61671 23.5621 8.60524 23.6189 8.65113C23.6871 8.69703 23.6985 8.78882 23.653 8.84618C22.061 11.0147 20.5941 13.298 19.275 15.6386C19.2522 15.6845 19.1954 15.7074 19.1499 15.7074L19.1613 15.7304Z" fill="black"/>
<path d="M22.4587 16.3041C22.4587 16.3041 22.4132 16.3041 22.3904 16.2811C22.3222 16.2352 22.2995 16.1549 22.345 16.0861C23.8346 13.6077 25.4494 11.1639 27.1437 8.83471C27.1892 8.76587 27.2802 8.75439 27.3371 8.80029C27.4053 8.84618 27.4167 8.93797 27.3712 8.99534C25.6768 11.313 24.0621 13.7454 22.5838 16.2237C22.561 16.2696 22.5155 16.2926 22.4587 16.2926V16.3041Z" fill="black"/>
<path d="M28.7809 16.5909C28.7809 16.5909 28.7354 16.5909 28.7127 16.568C28.6445 16.5335 28.6217 16.4417 28.6672 16.3729L32.6018 9.60345C32.6359 9.53461 32.7269 9.51166 32.7951 9.55755C32.8633 9.59197 32.8861 9.68376 32.8406 9.75261L28.906 16.5221C28.906 16.5221 28.8378 16.5909 28.7809 16.5909Z" fill="black"/>
</g>
<defs>
<clipPath id="clip0_219_2746">
<rect width="49" height="64" fill="white"/>
</clipPath>
</defs>
</svg>
