<svg width="59" height="61" viewBox="0 0 59 61" fill="none" xmlns="http://www.w3.org/2000/svg">
<g clip-path="url(#clip0_219_2642)">
<path d="M53.9601 13.17C48.9101 6.13 40.2601 1.05 31.4201 0.479999C18.5101 -0.340001 12.8601 3.67 7.54008 10.31C3.61008 15.2 1.20008 20.11 0.450076 28.91C-0.459924 39.6 7.34008 50.89 18.1101 57.24C27.1201 62.55 38.0901 58.93 36.2001 51.98C35.7601 50.35 34.5701 48.94 34.4001 47.26C34.0901 44.31 37.0501 42.05 39.9501 41.41C42.8501 40.77 45.9401 41.12 48.7801 40.28C53.7601 38.8 57.0101 33.77 57.6001 28.63C58.1901 23.49 57.3301 17.85 53.9701 13.18L53.9601 13.17Z" fill="white"/>
<path d="M27.1399 60.14C24.2499 60.14 21.0099 59.38 17.9199 57.56C12.5199 54.38 7.7799 49.88 4.5799 44.9C1.1899 39.62 -0.370102 34.08 0.0698982 28.88C0.849898 19.72 3.4999 14.74 7.2499 10.07C12.7999 3.14 18.5399 -0.71 31.4399 0.11C40.2399 0.67 48.9899 5.59 54.2699 12.95C57.3299 17.21 58.6399 22.8 57.9599 28.67C57.2999 34.41 53.6499 39.22 48.8699 40.64C47.2799 41.11 45.5999 41.22 43.9799 41.32C42.6599 41.4 41.2999 41.49 40.0199 41.78C37.2599 42.39 34.4799 44.51 34.7599 47.23C34.8499 48.12 35.2599 48.95 35.6899 49.82C36.0199 50.48 36.3499 51.16 36.5499 51.89C37.2099 54.31 36.4399 56.5 34.3899 58.07C32.7099 59.35 30.1099 60.16 27.1299 60.16L27.1399 60.14ZM28.1799 0.75C17.8199 0.75 12.7499 4.41 7.8299 10.54C4.0699 15.23 1.5899 19.95 0.819898 28.94C-0.0301018 39.01 6.9899 50.25 18.2999 56.91C24.2999 60.44 30.8299 59.83 33.9399 57.45C35.7299 56.08 36.3999 54.17 35.8299 52.07C35.6499 51.41 35.3399 50.79 35.0199 50.13C34.5799 49.24 34.1199 48.31 34.0199 47.29C33.6899 44.14 36.7799 41.71 39.8599 41.03C41.1999 40.73 42.5899 40.64 43.9299 40.56C45.5099 40.46 47.1499 40.35 48.6599 39.9C53.8399 38.36 56.6899 33.1 57.2099 28.57C57.8699 22.89 56.5999 17.49 53.6499 13.38C48.5899 6.32 39.8499 1.4 31.3899 0.86C30.2599 0.79 29.1899 0.75 28.1699 0.75H28.1799Z" fill="black"/>
<path d="M25.73 44.58C24.67 42.98 22.65 41.94 20.78 42.04C18.91 42.14 17.31 43.39 16.88 45.08C16.75 45.58 16.71 46.12 16.81 46.65C16.99 47.71 17.67 48.7 18.45 49.54C19.4 50.57 20.56 51.47 21.89 51.94C23.21 52.4 24.71 52.39 25.78 51.7C26.88 51 27.39 49.67 27.36 48.34C27.32 47.01 26.58 45.82 25.75 44.56L25.73 44.58Z" fill="white"/>
<path d="M23.6803 52.65C23.0503 52.65 22.4003 52.54 21.7503 52.31C20.4903 51.87 19.2803 51.03 18.1603 49.81C17.1703 48.73 16.6003 47.72 16.4303 46.73C16.3303 46.16 16.3603 45.58 16.5103 45C16.9903 43.16 18.7303 41.79 20.7603 41.68C22.7503 41.56 24.9203 42.68 26.0403 44.38C26.8103 45.54 27.6703 46.86 27.7103 48.35C27.7503 49.93 27.1003 51.3 25.9603 52.03C25.3203 52.44 24.5303 52.65 23.6803 52.65ZM21.0403 42.42C20.9603 42.42 20.8803 42.42 20.7903 42.42C19.0903 42.52 17.6203 43.65 17.2303 45.18C17.1103 45.66 17.0803 46.13 17.1603 46.59C17.3103 47.44 17.8103 48.33 18.7003 49.29C19.7303 50.41 20.8403 51.19 21.9803 51.59C23.2703 52.04 24.6403 51.97 25.5403 51.39C26.4503 50.8 26.9803 49.67 26.9503 48.36C26.9203 47.18 26.2603 46.09 25.4003 44.78C24.4603 43.36 22.7003 42.41 21.0303 42.41L21.0403 42.42Z" fill="black"/>
<path d="M9.28073 32.47C7.07073 30.35 7.05073 26.32 9.23073 24.05C10.2407 23 11.8207 22.33 13.1107 22.91C14.0007 23.31 14.5707 24.24 14.7907 25.2C15.0207 26.16 14.9507 27.18 14.8807 28.18C14.7807 29.62 14.6507 31.14 13.8707 32.37C13.0907 33.6 11.3607 34.47 9.28073 32.47Z" fill="#F5E400"/>
<path d="M11.7203 34.03C11.0403 34.03 10.0903 33.77 9.02031 32.74C7.92031 31.69 7.27031 30.11 7.23031 28.42C7.19031 26.65 7.82031 24.97 8.95031 23.79C10.0103 22.69 11.7503 21.89 13.2503 22.57C14.1703 22.99 14.8603 23.91 15.1403 25.12C15.3803 26.15 15.3103 27.25 15.2403 28.21C15.1503 29.55 15.0303 31.22 14.1803 32.57C13.6603 33.38 12.8803 33.91 12.0303 34.01C11.9303 34.02 11.8303 34.03 11.7203 34.03ZM12.0803 23.07C11.1303 23.07 10.1403 23.64 9.50031 24.31C8.50031 25.35 7.95031 26.84 7.98031 28.41C8.01031 29.9 8.58031 31.28 9.54031 32.2C10.3603 32.99 11.2003 33.36 11.9503 33.27C12.5803 33.19 13.1603 32.79 13.5603 32.17C14.3103 30.98 14.4203 29.48 14.5103 28.16C14.5803 27.2 14.6503 26.22 14.4303 25.29C14.2103 24.33 13.6603 23.57 12.9603 23.26C12.6803 23.13 12.3903 23.08 12.0903 23.08L12.0803 23.07Z" fill="black"/>
<path d="M14.9007 17C14.3207 15.22 14.6107 13.14 15.6607 11.54C16.7107 9.94 18.5007 8.85 20.3607 8.67C20.7607 8.63 21.1707 8.63 21.5607 8.52C22.3507 8.3 22.9707 7.67 23.6607 7.22C25.2607 6.19 27.4207 6.18 28.9807 7.19C29.2907 7.39 29.5807 7.64 29.7407 7.97C30.1007 8.72 29.6707 9.64 29.1607 10.32C28.6507 11 28.0107 11.67 27.9007 12.52C27.7807 13.4 28.2707 14.2 28.4907 15.05C29.0107 16.99 27.9807 19.28 26.1707 20.2C25.8207 20.38 25.4207 20.51 25.0307 20.47C24.0307 20.35 23.4507 19.11 22.4507 19.02C21.4607 18.93 20.7307 19.98 19.8307 20.44C18.7907 20.97 17.5107 20.67 16.6007 19.99C15.6907 19.3 15.3007 18.23 14.9007 17Z" fill="#F5E400"/>
<path d="M18.6604 21.09C17.8904 21.09 17.0704 20.82 16.3804 20.29C15.4004 19.54 14.9704 18.41 14.5504 17.11C13.9404 15.23 14.2504 13.01 15.3504 11.33C16.4504 9.65 18.3604 8.48 20.3304 8.29C20.4404 8.28 20.5504 8.27 20.6604 8.26C20.9504 8.24 21.2204 8.22 21.4704 8.15C21.9504 8.02 22.3704 7.7 22.8204 7.37C23.0304 7.21 23.2504 7.05 23.4804 6.9C25.2204 5.79 27.5204 5.77 29.2104 6.87C29.4904 7.05 29.8904 7.35 30.1004 7.8C30.4604 8.56 30.2404 9.53 29.4804 10.54C29.3904 10.66 29.3004 10.77 29.2104 10.89C28.7804 11.44 28.3704 11.96 28.2904 12.56C28.2204 13.08 28.4104 13.6 28.6104 14.15C28.7004 14.41 28.8004 14.67 28.8704 14.94C29.4404 17.06 28.3304 19.52 26.3604 20.53C25.8604 20.79 25.4204 20.89 25.0104 20.84C24.4004 20.77 23.9404 20.37 23.5304 20.03C23.1704 19.72 22.8204 19.43 22.4304 19.39C21.9304 19.35 21.4704 19.71 20.9804 20.1C20.6804 20.34 20.3604 20.59 20.0104 20.77C19.6004 20.98 19.1404 21.08 18.6704 21.08L18.6604 21.09ZM26.3704 6.83C25.4904 6.83 24.6104 7.07 23.8704 7.55C23.6604 7.68 23.4704 7.83 23.2604 7.99C22.7804 8.35 22.2804 8.73 21.6604 8.9C21.3404 8.99 21.0204 9.01 20.7104 9.03C20.6104 9.03 20.5004 9.04 20.4004 9.05C18.6504 9.22 16.9604 10.25 15.9704 11.75C14.9904 13.25 14.7104 15.22 15.2604 16.89C15.6504 18.11 16.0204 19.08 16.8304 19.7C17.7204 20.38 18.8304 20.54 19.6604 20.12C19.9404 19.98 20.2104 19.76 20.5004 19.53C21.0804 19.07 21.6904 18.59 22.4804 18.66C23.1104 18.72 23.5804 19.12 24.0004 19.47C24.3604 19.77 24.7004 20.06 25.0804 20.11C25.3304 20.14 25.6404 20.07 26.0004 19.88C27.6404 19.04 28.6004 16.92 28.1304 15.16C28.0704 14.92 27.9804 14.68 27.8904 14.43C27.6704 13.82 27.4404 13.18 27.5304 12.48C27.6404 11.68 28.1304 11.05 28.6004 10.45C28.6904 10.34 28.7804 10.22 28.8604 10.11C29.2004 9.66 29.7204 8.8 29.4004 8.14C29.3004 7.92 29.1004 7.72 28.7804 7.51C28.0804 7.05 27.2304 6.82 26.3704 6.82V6.83Z" fill="black"/>
<path d="M39.9406 9.1C38.8806 9.13 37.9006 9.71 37.0906 10.42C36.1806 11.22 35.3806 12.42 35.7106 13.57C35.8106 13.93 36.0206 14.25 36.1706 14.59C36.7606 15.91 36.4506 17.61 35.4206 18.66C35.0506 19.04 34.6006 19.34 34.3106 19.79C33.9506 20.35 33.8906 21.06 34.0306 21.7C34.4306 23.68 36.6906 25 38.6206 24.38C39.4406 24.12 40.2006 23.57 41.0506 23.52C42.3906 23.44 43.4806 24.61 44.8106 24.73C46.5406 24.89 48.1006 22.8 47.4706 21.18C46.9906 19.93 45.6006 19.27 45.0206 18.06C44.4506 16.89 44.7506 15.48 44.7506 14.15C44.7506 12.83 40.9906 9.07 39.9406 9.1Z" fill="#F5E400"/>
<path d="M44.9902 25.11C44.9202 25.11 44.8402 25.11 44.7702 25.11C44.0902 25.05 43.4902 24.75 42.9102 24.47C42.2802 24.16 41.6902 23.87 41.0702 23.91C40.6002 23.94 40.1502 24.15 39.6702 24.37C39.3702 24.51 39.0602 24.65 38.7302 24.76C37.7102 25.09 36.5502 24.94 35.5502 24.35C34.5602 23.77 33.8702 22.84 33.6602 21.79C33.4902 20.97 33.6102 20.19 34.0002 19.6C34.2202 19.27 34.5002 19.01 34.7802 18.77C34.9102 18.65 35.0402 18.54 35.1602 18.42C36.0802 17.48 36.3702 15.94 35.8402 14.76C35.7902 14.65 35.7302 14.54 35.6802 14.43C35.5602 14.2 35.4402 13.96 35.3602 13.69C35.0402 12.58 35.6002 11.26 36.8502 10.16C37.8802 9.26 38.9202 8.78 39.9402 8.75C40.6802 8.72 41.9802 9.86 42.6702 10.53C43.0802 10.93 45.1402 12.98 45.1402 14.18C45.1402 14.53 45.1202 14.89 45.1002 15.23C45.0402 16.21 44.9902 17.14 45.3702 17.92C45.6202 18.43 46.0402 18.84 46.4802 19.28C47.0002 19.8 47.5502 20.33 47.8302 21.06C48.1702 21.95 47.9802 23 47.3302 23.87C46.7302 24.67 45.8702 25.13 45.0102 25.13L44.9902 25.11ZM41.1802 23.14C41.9402 23.14 42.6002 23.47 43.2402 23.78C43.7802 24.05 44.3002 24.3 44.8402 24.35C45.5102 24.41 46.2202 24.05 46.7102 23.4C47.2002 22.75 47.3602 21.95 47.1102 21.31C46.8802 20.73 46.4202 20.27 45.9402 19.79C45.4702 19.33 44.9802 18.85 44.6802 18.22C44.2102 17.26 44.2802 16.19 44.3402 15.16C44.3602 14.83 44.3802 14.48 44.3802 14.15C44.3802 13.62 43.4202 12.28 42.1402 11.04C40.9602 9.89 40.1802 9.47 39.9602 9.47C38.9102 9.5 37.9602 10.15 37.3402 10.7C36.9502 11.04 35.7202 12.24 36.0802 13.46C36.1402 13.66 36.2402 13.86 36.3402 14.06C36.4002 14.18 36.4602 14.3 36.5202 14.43C37.1802 15.9 36.8402 17.74 35.7002 18.92C35.5602 19.06 35.4202 19.19 35.2802 19.31C35.0302 19.53 34.8002 19.74 34.6302 19.99C34.3602 20.41 34.2702 21 34.4002 21.62C34.5702 22.46 35.1302 23.21 35.9402 23.68C36.7502 24.16 37.6902 24.28 38.5102 24.02C38.7902 23.93 39.0702 23.8 39.3602 23.67C39.8802 23.43 40.4202 23.18 41.0302 23.14C41.0802 23.14 41.1302 23.14 41.1802 23.14Z" fill="black"/>
<path d="M38.49 4.53C38.49 4.53 38.46 4.53 38.44 4.52C36.3 3.59 33.93 3.08 31.58 3.05C31.51 3.05 31.46 2.99 31.46 2.92C31.46 2.85 31.52 2.79 31.59 2.8C33.97 2.82 36.38 3.34 38.55 4.29C38.61 4.32 38.64 4.39 38.61 4.45C38.59 4.5 38.54 4.53 38.5 4.53H38.49Z" fill="black"/>
<path d="M28.0997 57.02C28.0297 57.02 27.9797 56.97 27.9697 56.9C27.9697 56.83 28.0197 56.77 28.0897 56.77C29.8197 56.7 31.5197 56.15 32.9997 55.19C33.0597 55.15 33.1397 55.17 33.1697 55.23C33.2097 55.29 33.1897 55.37 33.1297 55.4C31.6097 56.39 29.8697 56.95 28.0997 57.02Z" fill="black"/>
</g>
<defs>
<clipPath id="clip0_219_2642">
<rect width="58.14" height="60.14" fill="white"/>
</clipPath>
</defs>
</svg>
