<?xml version="1.0" encoding="utf-8"?>
<!-- Generator: Adobe Illustrator 24.1.2, SVG Export Plug-In . SVG Version: 6.00 Build 0)  -->
<svg version="1.1" id="Layer_1" xmlns="http://www.w3.org/2000/svg" xmlns:xlink="http://www.w3.org/1999/xlink" x="0px" y="0px"
	 viewBox="0 0 82 42" style="enable-background:new 0 0 82 42;" xml:space="preserve">
<g>
	<path d="M25.2,0.1h-6.9c-2.7,0-5.1,1.7-5.9,4.3L5.9,23.5h11.4L25.2,0.1z"/>
	<path d="M49.3,0.1H37.9l-8,23.5h6.9c2.7,0,5.1-1.7,5.9-4.3L49.3,0.1z"/>
	<path d="M77.3,15.6c0-1.9-1.1-3.6-2.9-4.4l-16.8-7c-2.3-1-1.8-3.7-0.3-4.2c-4.9,0-8.2,2.9-8.9,6.3c-0.1,0.3-0.1,0.6-0.1,1
		c0,0.1,0,0.3,0,0.4c0,0.1,0,0.2,0.1,0.3c0.2,1.6,1.2,3.1,2.9,3.8l16.1,6.7c0.1,0,0.1,0.1,0.3,0.1c3.2,1.4,2.5,4.9,0.8,4.9
		c5.6,0,9.1-3.7,9.1-7.7C77.3,15.8,77.3,15.7,77.3,15.6z"/>
	<path d="M33.5,12.1L25.4,0.4l-0.3,0.8l8.1,11.8L33.5,12.1z"/>
	<path d="M33,13.6L24.9,1.8l-0.3,0.8l8.1,11.8L33,13.6z"/>
	<path d="M32.5,15.1L24.4,3.3l-0.3,0.8l8.1,11.8L32.5,15.1z"/>
	<path d="M32,16.6L23.9,4.7l-0.3,0.8l8.1,11.8L32,16.6z"/>
	<path d="M31.5,18L23.4,6.2L23.2,7l8.1,11.8L31.5,18z"/>
	<path d="M31,19.5L22.9,7.7l-0.3,0.8l8.1,11.8L31,19.5z"/>
	<path d="M30.5,21L22.4,9.2L22.2,10l8.1,11.8L30.5,21z"/>
	<path d="M30,22.5l-8.1-11.8l-0.3,0.8l8.1,11.8L30,22.5z"/>
	<path d="M58.7,0c-0.9,0-1.5,0.3-1.9,0.6h25L82,0H58.7z"/>
	<path d="M81.6,1.3L56.4,1.2c-0.1,0.2-0.1,0.4-0.1,0.6L81.4,2L81.6,1.3L81.6,1.3z"/>
	<path d="M81.1,2.6L56.3,2.5c0.1,0.2,0.1,0.5,0.3,0.6l24.3,0.1L81.1,2.6C81.1,2.6,81.1,2.6,81.1,2.6z"/>
	<path d="M80.6,3.8L57.2,3.7c0.1,0.1,0.3,0.2,0.5,0.3l1,0.4l21.9,0.1L80.6,3.8C80.7,3.8,80.7,3.8,80.6,3.8z"/>
	<path d="M80.2,5.1L60.1,5l1.6,0.7l18.5,0.1l0.2-0.6C80.3,5.1,80.2,5.1,80.2,5.1z"/>
	<path d="M79.7,6.3L63.1,6.2l1.6,0.7l15,0.1l0.2-0.6C79.8,6.3,79.8,6.3,79.7,6.3z"/>
	<path d="M62,16.6l-16.2,0l-0.2,0.6c0,0,0.1,0,0.1,0l17.9,0L62,16.6z"/>
	<path d="M65,17.9l-19.6-0.1l-0.2,0.6c0,0,0.1,0,0.1,0l21.3,0.1L65,17.9z"/>
	<path d="M67.9,19.1L45,19.1l-0.2,0.6c0,0,0.1,0,0.1,0l23.9,0.1C68.6,19.6,68.3,19.3,67.9,19.1z"/>
	<path d="M69.2,20.4l-24.6-0.1l-0.2,0.6c0,0,0,0,0.1,0L69.5,21C69.4,20.8,69.3,20.6,69.2,20.4z"/>
	<path d="M69.5,22c0-0.1,0-0.3,0-0.4l-25.4-0.1l-0.2,0.6h0l25.5,0.1C69.4,22.2,69.5,22.1,69.5,22z"/>
	<path d="M68.4,23.3c0.3-0.1,0.5-0.2,0.7-0.4H43.7l-0.2,0.6h23.5C67.8,23.5,68.1,23.4,68.4,23.3z"/>
	<path d="M4.4,27.9H6c0.2,0,0.3,0,0.4,0.1c0.1,0,0.2,0.1,0.3,0.1s0.2,0.1,0.3,0.2c0.1,0.1,0.1,0.1,0.2,0.2l0.1,0.1l1,2l0.9-2.7h2.3
		l-1.9,5.6H8c-0.3,0-0.5-0.1-0.7-0.2c-0.2-0.1-0.3-0.4-0.5-0.6l-1.1-2l-1,2.9H2.5L4.4,27.9z"/>
	<path d="M14.3,31.5l0.5-1.5l1.5-0.3c0,0,0,0,0,0c0,0,0,0,0,0l0.1-0.3h-1.9l-0.9,2.6h4.2l-0.5,1.5h-4.7c-0.1,0-0.3,0-0.5-0.1
		c-0.2-0.1-0.3-0.1-0.5-0.2c-0.1-0.1-0.3-0.2-0.3-0.4c-0.1-0.1-0.1-0.3,0-0.4l1.2-3.4c0.1-0.2,0.2-0.3,0.3-0.4
		c0.2-0.1,0.3-0.3,0.5-0.4s0.4-0.2,0.6-0.2c0.2-0.1,0.3-0.1,0.5-0.1h3.2c0.1,0,0.3,0,0.4,0.1c0.2,0.1,0.3,0.1,0.5,0.2
		c0.1,0.1,0.2,0.2,0.3,0.4c0.1,0.1,0.1,0.3,0,0.4L18.5,30c-0.1,0.1-0.1,0.3-0.3,0.4c-0.1,0.1-0.3,0.2-0.4,0.3s-0.3,0.2-0.5,0.2
		C17.2,31,17,31,16.9,31L14.3,31.5z"/>
	<path d="M25.9,28c0.2,0.1,0.3,0.1,0.4,0.2c0.1,0.1,0.2,0.2,0.3,0.4c0.1,0.1,0.1,0.3,0,0.4l-1.2,3.4c-0.1,0.2-0.2,0.3-0.3,0.4
		c-0.2,0.1-0.4,0.3-0.6,0.4c-0.2,0.1-0.4,0.2-0.6,0.2c-0.2,0.1-0.4,0.1-0.5,0.1h-3.2c-0.1,0-0.3,0-0.5-0.1c-0.2-0.1-0.3-0.1-0.5-0.2
		c-0.1-0.1-0.3-0.2-0.3-0.4c-0.1-0.1-0.1-0.3,0-0.4L20,29c0.1-0.2,0.2-0.3,0.3-0.4c0.2-0.1,0.3-0.3,0.5-0.4c0.2-0.1,0.4-0.2,0.6-0.2
		c0.2-0.1,0.3-0.1,0.5-0.1h3.5C25.6,27.9,25.7,27.9,25.9,28z M21.3,31.9h2.1l0.9-2.6h-2.1L21.3,31.9z"/>
	<path d="M26.8,31.9H31l0.2-0.5h-2.6c-0.2,0-0.4,0-0.5-0.1c-0.2-0.1-0.3-0.1-0.4-0.2c-0.1-0.1-0.2-0.2-0.3-0.3
		c-0.1-0.1-0.1-0.2,0-0.4l0.5-1.5c0.1-0.2,0.2-0.3,0.3-0.4c0.2-0.1,0.3-0.3,0.5-0.4c0.2-0.1,0.4-0.2,0.6-0.2
		c0.2-0.1,0.4-0.1,0.5-0.1h4.8l-0.5,1.5H30l-0.2,0.5h2.6c0.2,0,0.4,0,0.5,0.1c0.2,0.1,0.3,0.1,0.4,0.2c0.1,0.1,0.2,0.2,0.3,0.3
		c0.1,0.1,0.1,0.2,0,0.4l-0.5,1.5c-0.1,0.2-0.2,0.3-0.3,0.4c-0.2,0.1-0.3,0.3-0.5,0.4c-0.2,0.1-0.4,0.2-0.6,0.2
		c-0.2,0.1-0.4,0.1-0.5,0.1h-4.8L26.8,31.9z"/>
	<path d="M37,29.4h-1.8l0.5-1.5h6l-0.5,1.5h-1.8l-1.4,4.1h-2.3L37,29.4z"/>
	<path d="M42.4,27.9h4.8c0.1,0,0.3,0,0.5,0.1c0.2,0.1,0.3,0.1,0.5,0.2c0.1,0.1,0.2,0.2,0.3,0.4c0.1,0.1,0.1,0.3,0,0.4L48,30.5
		c-0.1,0.1-0.1,0.3-0.3,0.4c-0.1,0.1-0.3,0.2-0.4,0.3c-0.1,0.1-0.3,0.1-0.4,0.2c-0.1,0.1-0.2,0.1-0.2,0.1l0.8,2.1H45l-1-2.3l0.4-1.1
		h1.4l0.2-0.7h-1.9l-1.4,4.1h-2.3L42.4,27.9z"/>
	<path d="M51.5,31.5L52,30l1.5-0.3c0,0,0,0,0,0c0,0,0,0,0,0l0.1-0.3h-1.9l-0.9,2.6h4.2l-0.5,1.5h-4.7c-0.1,0-0.3,0-0.5-0.1
		c-0.2-0.1-0.3-0.1-0.5-0.2c-0.1-0.1-0.3-0.2-0.3-0.4c-0.1-0.1-0.1-0.3,0-0.4l1.2-3.4c0.1-0.2,0.2-0.3,0.3-0.4
		c0.2-0.1,0.3-0.3,0.5-0.4c0.2-0.1,0.4-0.2,0.6-0.2c0.2-0.1,0.3-0.1,0.5-0.1h3.2c0.1,0,0.3,0,0.4,0.1c0.2,0.1,0.3,0.1,0.5,0.2
		c0.1,0.1,0.2,0.2,0.3,0.4c0.1,0.1,0.1,0.3,0,0.4L55.7,30c-0.1,0.1-0.1,0.3-0.3,0.4c-0.1,0.1-0.3,0.2-0.4,0.3
		c-0.2,0.1-0.3,0.2-0.5,0.2C54.4,31,54.2,31,54.1,31L51.5,31.5z"/>
	<path d="M61.2,29.6l0.1-0.2h-4.2l0.5-1.5h4.8c0.2,0,0.3,0,0.5,0.1c0.2,0.1,0.3,0.1,0.4,0.3c0.1,0.1,0.2,0.2,0.3,0.4
		c0.1,0.1,0.1,0.3,0,0.5l-1.5,4.3h-2.3l0.7-2.2h-0.2l-1.8,0.3L58.5,32h1.4l-0.5,1.5h-1.9c-0.1,0-0.3,0-0.5-0.1
		c-0.2-0.1-0.3-0.1-0.5-0.2c-0.2-0.1-0.3-0.2-0.4-0.3c-0.1-0.1-0.1-0.3-0.1-0.4l0.4-1.2c0-0.1,0.1-0.2,0.3-0.4
		c0.1-0.1,0.3-0.2,0.4-0.3c0.1-0.1,0.3-0.1,0.5-0.2c0.2-0.1,0.3-0.1,0.4-0.1L61.2,29.6z"/>
	<path d="M69.8,31.2l-2.3,2.3h-0.3l-0.8-2.3l-0.8,2.3h-2.3l1.9-5.6h1.4c0.1,0,0.2,0,0.3,0.1c0.1,0.1,0.2,0.1,0.3,0.2
		s0.2,0.2,0.3,0.3c0.1,0.1,0.1,0.2,0.2,0.3c0,0,0,0.1,0,0.1l0.5,1.7l1.8-1.8c0.1-0.1,0.2-0.2,0.4-0.3c0.1-0.1,0.3-0.2,0.5-0.3
		c0.1-0.1,0.3-0.2,0.4-0.2c0.1-0.1,0.3-0.1,0.3-0.1h1.4l-1.9,5.6H69L69.8,31.2z"/>
	<path d="M42.4,37.7h-1.9v-1H40v4.1h2.5c0.2,0,0.3-0.1,0.5-0.2c0.1-0.1,0.2-0.3,0.2-0.5v-1.7c0-0.2-0.1-0.4-0.2-0.5
		C42.8,37.8,42.6,37.7,42.4,37.7z M42.5,40.1c0,0.1,0,0.1,0,0.1c0,0-0.1,0-0.2,0h-1.6c-0.1,0-0.1,0-0.2,0c0,0,0-0.1,0-0.1v-1.5
		c0-0.1,0-0.1,0-0.1c0,0,0.1,0,0.2,0h1.6c0.1,0,0.1,0,0.2,0c0,0,0,0.1,0,0.1V40.1z"/>
	<path d="M46.5,40.1c0,0.1,0,0.1,0,0.1s-0.1,0-0.2,0h-1.6c-0.1,0-0.1,0-0.2,0c0,0,0-0.1,0-0.1v-2.3h-0.6v2.4c0,0.2,0.1,0.4,0.2,0.5
		c0.1,0.1,0.3,0.2,0.5,0.2h1.9v0.4c0,0.1,0,0.1,0,0.1c0,0-0.1,0-0.2,0h-1.8V42h1.9c0.2,0,0.3-0.1,0.5-0.2c0.1-0.1,0.2-0.3,0.2-0.5
		v-3.6h-0.6V40.1z"/>
	<path d="M53.4,40l-2.6-3h-0.7v3.8h0.6v-3l2.6,3H54V37h-0.6V40z"/>
	<path d="M57.5,37.7h-1.8c-0.2,0-0.3,0.1-0.5,0.2c-0.1,0.1-0.2,0.3-0.2,0.5v1.7c0,0.2,0.1,0.4,0.2,0.5c0.1,0.1,0.3,0.2,0.5,0.2h2.5
		v-0.6h-2.4c-0.1,0-0.1,0-0.2,0c0,0,0-0.1,0-0.1v-0.5h2.6v-1.1c0-0.2-0.1-0.4-0.2-0.5C57.8,37.8,57.6,37.7,57.5,37.7z M57.6,39h-2
		v-0.5c0-0.1,0-0.1,0-0.1c0,0,0.1,0,0.2,0h1.6c0.1,0,0.1,0,0.1,0c0,0,0,0.1,0,0.1V39z"/>
	<path d="M61.6,37.7h-1.8c-0.2,0-0.3,0.1-0.5,0.2c-0.1,0.1-0.2,0.3-0.2,0.5v1.7c0,0.2,0.1,0.4,0.2,0.5c0.1,0.1,0.3,0.2,0.5,0.2h1.8
		c0.2,0,0.3-0.1,0.5-0.2c0.1-0.1,0.2-0.3,0.2-0.5v-1.7c0-0.2-0.1-0.4-0.2-0.5C61.9,37.8,61.8,37.7,61.6,37.7z M61.7,40.1
		c0,0.1,0,0.1,0,0.1c0,0-0.1,0-0.1,0h-1.6c-0.1,0-0.1,0-0.2,0c0,0,0-0.1,0-0.1v-1.5c0-0.1,0-0.1,0-0.1c0,0,0.1,0,0.2,0h1.6
		c0.1,0,0.1,0,0.1,0c0,0,0,0.1,0,0.1V40.1z"/>
	<path d="M63.3,40.8h0.6v-1.6h2.4v-0.6h-2.4v-1h2.9V37h-3.5V40.8z"/>
	<path d="M68.2,37.7h-0.6v3.1h0.6V37.7z"/>
	<path d="M68.2,36.7h-0.6v0.6h0.6V36.7z"/>
	<path d="M71.1,38.3v-0.6h-1.3v-1h-0.6v3.4c0,0.2,0.1,0.4,0.2,0.5c0.1,0.1,0.3,0.2,0.5,0.2h1.2v-0.6h-1.1c-0.1,0-0.1,0-0.2,0
		c0,0,0-0.1,0-0.1v-1.7H71.1z"/>
	<path d="M0.8,38.4h35.8v-0.7H1.1L0.8,38.4z"/>
	<path d="M0.4,39.6h36.2v-0.7h-36L0.4,39.6z"/>
	<path d="M0,40.8h36.6v-0.6H0.2L0,40.8z"/>
</g>
</svg>
