<?xml version="1.0" encoding="UTF-8"?>
<!DOCTYPE svg PUBLIC "-//W3C//DTD SVG 1.1//EN" "http://www.w3.org/Graphics/SVG/1.1/DTD/svg11.dtd">
<svg xmlns="http://www.w3.org/2000/svg" xmlns:xlink="http://www.w3.org/1999/xlink">
<symbol id="vkneostream" viewBox="0 0 64 64">
	<path d="M52.8 0H11.2C5 0 0 5 0 11.2v41.6C0 59 5 64 11.2 64h41.6C59 64 64 59 64 52.8V11.2C64 5 59 0 52.8 0zM54 45.3h-8.6c-.5 0-.9-.2-1.2-.5-1.3-1.5-5.2-5.6-7-5.3-1.5.3-1.6 2.8-1.5 4.4 0 .9-.6 1.6-1.5 1.7-1.5.1-3.6.1-3.8.1-6.1-.4-9.7-4.5-13.2-9-3.6-4.8-6.4-10.2-8.4-15.9-.1-.4.1-.9.5-1h7.9c.3 0 .6.2.7.5.9 2.2 4.4 10.8 7.6 11.5 2.4 0 1.5-11.4-1.5-11.4-.8 0 1.4-1.4 1.6-1.5 2.8-.8 5.8-.8 8.7 0 1.5.6 1.8 2.4 1.8 4 0 1.5-1.7 8 .6 8.7 3 .9 6.9-8.5 7.8-10.8.1-.3.4-.5.7-.5h8.5c.4 0 .8.4.8.8 0 .1 0 .2-.1.3-1.8 4-3.9 7.9-6.3 11.5-.4.6-.4 1.5.2 2C51 37.6 58 45.3 54 45.3z" style="fill:#f5e400"/>
</symbol>
</svg>